<svg xmlns="http://www.w3.org/2000/svg" width="768" height="768" viewBox="0 0 768 768">
  <defs>
    <style>
      .bg{fill:#0b1220}
      .panel{fill:#111827;stroke:#1e293b;stroke-width:4}
      .shape{fill:#0f172a;stroke:#94a3b8;stroke-width:6}
      .gline{stroke:#94a3b8;stroke-width:2;fill:none}
      .gdot{fill:#cbd5e1}
      .sock{fill:none;stroke-width:6}
      .frame{fill:none;stroke:#64748b;stroke-width:2}
    </style>
  </defs>

  <rect class="bg" width="768" height="768"></rect>
  <rect class="panel" x="64" y="64" width="640" height="640" rx="28"></rect>

  <!-- LEFT SHAPES + graph glyphs -->
  <!-- TRIANGLE -> BLUE : Cycle C4 (square) -->
  <polygon class="shape" points="160,150 210,230 110,230"></polygon>
  <g transform="translate(140,188)">
    <rect class="frame" x="0" y="0" width="40" height="40" rx="6"></rect>
    <path class="gline" d="M4,4 L36,4 L36,36 L4,36 Z"></path>
    <circle class="gdot" cx="4" cy="4" r="3"></circle>
    <circle class="gdot" cx="36" cy="4" r="3"></circle>
    <circle class="gdot" cx="36" cy="36" r="3"></circle>
    <circle class="gdot" cx="4" cy="36" r="3"></circle>
  </g>

  <!-- CIRCLE -> YELLOW : Star K1,3 -->
  <circle class="shape" cx="160" cy="300" r="46"></circle>
  <g transform="translate(140,280)">
    <rect class="frame" x="0" y="0" width="40" height="40" rx="6"></rect>
    <line class="gline" x1="20" y1="20" x2="6" y2="6"></line>
    <line class="gline" x1="20" y1="20" x2="34" y2="6"></line>
    <line class="gline" x1="20" y1="20" x2="20" y2="36"></line>
    <circle class="gdot" cx="20" cy="20" r="3"></circle>
    <circle class="gdot" cx="6" cy="6" r="3"></circle>
    <circle class="gdot" cx="34" cy="6" r="3"></circle>
    <circle class="gdot" cx="20" cy="36" r="3"></circle>
  </g>

  <!-- SQUARE -> RED : Square + one diagonal -->
  <rect class="shape" x="116" y="372" width="88" height="88" rx="10"></rect>
  <g transform="translate(140,404)">
    <rect class="frame" x="0" y="0" width="40" height="40" rx="6"></rect>
    <path class="gline" d="M4,4 L36,4 L36,36 L4,36 Z"></path>
    <line class="gline" x1="4" y1="4" x2="36" y2="36"></line>
    <circle class="gdot" cx="4" cy="4" r="3"></circle>
    <circle class="gdot" cx="36" cy="4" r="3"></circle>
    <circle class="gdot" cx="36" cy="36" r="3"></circle>
    <circle class="gdot" cx="4" cy="36" r="3"></circle>
  </g>

  <!-- HEXAGON -> GREEN : Path P4 -->
  <polygon class="shape" points="160,520 188,505 188,475 160,460 132,475 132,505"></polygon>
  <g transform="translate(140,486)">
    <rect class="frame" x="0" y="0" width="40" height="40" rx="6"></rect>
    <line class="gline" x1="4" y1="20" x2="20" y2="20"></line>
    <line class="gline" x1="20" y1="20" x2="36" y2="8"></line>
    <circle class="gdot" cx="4" cy="20" r="3"></circle>
    <circle class="gdot" cx="20" cy="20" r="3"></circle>
    <circle class="gdot" cx="36" cy="8" r="3"></circle>
    <!-- fourth node isolated at bottom-right to force (1,2,2,1) when rotated -->
    <circle class="gdot" cx="32" cy="34" r="3"></circle>
  </g>

  <!-- RIGHT sockets show the SAME graph identities (neutral), color is the answer -->
  <g transform="translate(560,160)">
    <!-- BLUE : Cycle C4 -->
    <rect class="sock" stroke="#3b82f6" x="0" y="300" width="72" height="72" rx="12"></rect>
    <g transform="translate(16,316)">
      <rect class="frame" x="0" y="0" width="40" height="40" rx="6"></rect>
      <path class="gline" d="M4,4 L36,4 L36,36 L4,36 Z"></path>
      <circle class="gdot" cx="4" cy="4" r="3"></circle>
      <circle class="gdot" cx="36" cy="4" r="3"></circle>
      <circle class="gdot" cx="36" cy="36" r="3"></circle>
      <circle class="gdot" cx="4" cy="36" r="3"></circle>
    </g>

    <!-- YELLOW : Star K1,3 -->
    <rect class="sock" stroke="#f59e0b" x="0" y="0" width="72" height="72" rx="12"></rect>
    <g transform="translate(16,16)">
      <rect class="frame" x="0" y="0" width="40" height="40" rx="6"></rect>
      <line class="gline" x1="20" y1="20" x2="6" y2="6"></line>
      <line class="gline" x1="20" y1="20" x2="34" y2="6"></line>
      <line class="gline" x1="20" y1="20" x2="20" y2="36"></line>
      <circle class="gdot" cx="20" cy="20" r="3"></circle>
      <circle class="gdot" cx="6" cy="6" r="3"></circle>
      <circle class="gdot" cx="34" cy="6" r="3"></circle>
      <circle class="gdot" cx="20" cy="36" r="3"></circle>
    </g>

    <!-- RED : Square + one diagonal -->
    <rect class="sock" stroke="#ef4444" x="0" y="200" width="72" height="72" rx="12"></rect>
    <g transform="translate(16,216)">
      <rect class="frame" x="0" y="0" width="40" height="40" rx="6"></rect>
      <path class="gline" d="M4,4 L36,4 L36,36 L4,36 Z"></path>
      <line class="gline" x1="4" y1="4" x2="36" y2="36"></line>
      <circle class="gdot" cx="4" cy="4" r="3"></circle>
      <circle class="gdot" cx="36" cy="4" r="3"></circle>
      <circle class="gdot" cx="36" cy="36" r="3"></circle>
      <circle class="gdot" cx="4" cy="36" r="3"></circle>
    </g>

    <!-- GREEN : Path P4 -->
    <rect class="sock" stroke="#22c55e" x="0" y="100" width="72" height="72" rx="12"></rect>
    <g transform="translate(16,116)">
      <rect class="frame" x="0" y="0" width="40" height="40" rx="6"></rect>
      <line class="gline" x1="4" y1="20" x2="20" y2="20"></line>
      <line class="gline" x1="20" y1="20" x2="36" y2="8"></line>
      <circle class="gdot" cx="4" cy="20" r="3"></circle>
      <circle class="gdot" cx="20" cy="20" r="3"></circle>
      <circle class="gdot" cx="36" cy="8" r="3"></circle>
      <circle class="gdot" cx="32" cy="34" r="3"></circle>
    </g>
  </g>
</svg>
