<svg xmlns="http://www.w3.org/2000/svg" width="768" height="768" viewBox="0 0 768 768">
  <defs>
    <style>
      .bg{fill:#0b1220}
      .panel{fill:#111827;stroke:#1e293b;stroke-width:4}
      .shape{fill:#0f172a;stroke:#94a3b8;stroke-width:6}
      .cell{fill:#cbd5e1}
      .frame{fill:none;stroke:#64748b;stroke-width:2}
      .sock{fill:none;stroke-width:6}
      .gridbg{fill:#0b1220;opacity:.6}
    </style>
    <!-- helper: draw a 2x2 grid at 0,0 size 32 -->
    <symbol id="grid2">
      <rect class="frame" x="0" y="0" width="32" height="32" rx="4"></rect>
      <line class="frame" x1="16" y1="0" x2="16" y2="32"></line>
      <line class="frame" x1="0" y1="16" x2="32" y2="16"></line>
    </symbol>
  </defs>

  <rect class="bg" width="768" height="768"></rect>
  <rect class="panel" x="64" y="64" width="640" height="640" rx="28"></rect>

  <!-- LEFT SHAPES + grids (unique fill patterns) -->
  <!-- TRIANGLE → RED : fill TL -->
  <polygon class="shape" points="160,150 210,230 110,230"></polygon>
  <g transform="translate(144,188)">
    <use href="#grid2"></use>
    <rect class="cell" x="2" y="2" width="12" height="12" rx="2"></rect>
  </g>

  <!-- CIRCLE → GREEN : fill TR + BL -->
  <circle class="shape" cx="160" cy="300" r="46"></circle>
  <g transform="translate(144,284)">
    <use href="#grid2"></use>
    <rect class="cell" x="18" y="2" width="12" height="12" rx="2"></rect>
    <rect class="cell" x="2" y="18" width="12" height="12" rx="2"></rect>
  </g>

  <!-- SQUARE → YELLOW : fill full TOP row (TL + TR) -->
  <rect class="shape" x="116" y="372" width="88" height="88" rx="10"></rect>
  <g transform="translate(144,406)">
    <use href="#grid2"></use>
    <rect class="cell" x="2" y="2" width="12" height="12" rx="2"></rect>
    <rect class="cell" x="18" y="2" width="12" height="12" rx="2"></rect>
  </g>

  <!-- HEXAGON → BLUE : fill BR -->
  <polygon class="shape" points="160,520 188,505 188,475 160,460 132,475 132,505"></polygon>
  <g transform="translate(144,486)">
    <use href="#grid2"></use>
    <rect class="cell" x="18" y="18" width="12" height="12" rx="2"></rect>
  </g>

  <!-- RIGHT colored sockets with the same grid signatures (cells in gray) -->
  <g transform="translate(560,160)">
    <!-- RED -->
    <rect class="sock" stroke="#ef4444" x="0" y="0" width="72" height="72" rx="12"></rect>
    <g transform="translate(20,20)">
      <use href="#grid2"></use>
      <rect class="cell" x="2" y="2" width="12" height="12" rx="2"></rect>
    </g>

    <!-- GREEN -->
    <rect class="sock" stroke="#22c55e" x="0" y="100" width="72" height="72" rx="12"></rect>
    <g transform="translate(20,120)">
      <use href="#grid2"></use>
      <rect class="cell" x="18" y="2" width="12" height="12" rx="2"></rect>
      <rect class="cell" x="2" y="18" width="12" height="12" rx="2"></rect>
    </g>

    <!-- YELLOW -->
    <rect class="sock" stroke="#f59e0b" x="0" y="200" width="72" height="72" rx="12"></rect>
    <g transform="translate(20,220)">
      <use href="#grid2"></use>
      <rect class="cell" x="2" y="2" width="12" height="12" rx="2"></rect>
      <rect class="cell" x="18" y="2" width="12" height="12" rx="2"></rect>
    </g>

    <!-- BLUE -->
    <rect class="sock" stroke="#3b82f6" x="0" y="300" width="72" height="72" rx="12"></rect>
    <g transform="translate(20,320)">
      <use href="#grid2"></use>
      <rect class="cell" x="18" y="18" width="12" height="12" rx="2"></rect>
    </g>
  </g>
</svg>
