<svg xmlns="http://www.w3.org/2000/svg" width="768" height="768" viewBox="0 0 768 768">
  <defs>
    <style>
      .bg{fill:#0b1220}
      .panel{fill:#111827;stroke:#1e293b;stroke-width:4}
      .shape{fill:#0f172a;stroke:#94a3b8;stroke-width:6}
      .sock{fill:none;stroke-width:6}
      .notch{fill:#0b1220}
      .guide{fill:#475569}
    </style>
  </defs>

  <rect class="bg" width="768" height="768"></rect>
  <rect class="panel" x="64" y="64" width="640" height="640" rx="28"></rect>

  <!-- LEFT SHAPES + tiny notch cutouts -->
  <!-- triangle (notch at LEFT) -->
  <polygon class="shape" points="160,150 210,230 110,230"></polygon>
  <polygon class="notch" points="116,190 132,182 132,198"></polygon>

  <!-- circle (notch at TOP) -->
  <circle class="shape" cx="160" cy="300" r="46"></circle>
  <rect class="notch" x="154" y="246" width="12" height="12" rx="2"></rect>

  <!-- square (notch at BOTTOM) -->
  <rect class="shape" x="116" y="372" width="88" height="88" rx="10"></rect>
  <rect class="notch" x="148" y="448" width="24" height="12" rx="2"></rect>

  <!-- hexagon (notch at RIGHT) -->
  <polygon class="shape" points="160,520 188,505 188,475 160,460 132,475 132,505"></polygon>
  <rect class="notch" x="190" y="490" width="12" height="20" rx="2"></rect>

  <!-- RIGHT SOCKETS with the same notch orientation -->
  <g transform="translate(560,160)">
    <!-- RED (triangle) notch LEFT -->
    <rect class="sock" stroke="#ef4444" x="0" y="0" width="72" height="72" rx="12"></rect>
    <rect class="notch" x="-6" y="30" width="18" height="12" rx="2"></rect>
    <!-- YELLOW (circle) notch TOP -->
    <rect class="sock" stroke="#f59e0b" x="0" y="100" width="72" height="72" rx="12"></rect>
    <rect class="notch" x="30" y="94" width="12" height="18" rx="2"></rect>
    <!-- BLUE (square) notch BOTTOM -->
    <rect class="sock" stroke="#3b82f6" x="0" y="200" width="72" height="72" rx="12"></rect>
    <rect class="notch" x="24" y="272" width="24" height="12" rx="2"></rect>
    <!-- GREEN (hex) notch RIGHT -->
    <rect class="sock" stroke="#22c55e" x="0" y="300" width="72" height="72" rx="12"></rect>
    <rect class="notch" x="72" y="330" width="12" height="20" rx="2"></rect>
  </g>
</svg>
