<svg xmlns="http://www.w3.org/2000/svg" width="768" height="768" viewBox="0 0 768 768">
  <defs>
    <style>
      .bg{fill:#0b1220}
      .panel{fill:#111827;stroke:#1e293b;stroke-width:4}
      .shape{fill:#0f172a;stroke:#94a3b8;stroke-width:6}
      .frame{fill:none;stroke:#64748b;stroke-width:2}
      .start{fill:#94a3b8}
      .bit{fill:#94a3b8}
      .sock{fill:none;stroke-width:6}
      .notch{fill:#0b1220}
    </style>
  </defs>

  <rect class="bg" width="768" height="768"></rect>
  <rect class="panel" x="64" y="64" width="640" height="640" rx="28"></rect>

  <!-- LEFT SHAPES + 4-bit mask (T,R,B,L), read from chevron (start) clockwise -->

  <!-- TRIANGLE -> YELLOW : bits 1,0,0,1 (T,L) -->
  <polygon class="shape" points="160,150 210,230 110,230"></polygon>
  <rect class="frame" x="124" y="178" width="72" height="52" rx="6"></rect>
  <!-- start chevron on top edge center -->
  <path class="start" d="M160,172 l6,8 h-12 z"></path>
  <!-- Top bit -->
  <rect class="bit" x="156" y="172" width="8" height="8" rx="2"></rect>
  <!-- Left bit -->
  <rect class="bit" x="118" y="200" width="8" height="8" rx="2"></rect>

  <!-- CIRCLE -> RED : bits 1,1,0,0 (T,R) -->
  <circle class="shape" cx="160" cy="300" r="46"></circle>
  <rect class="frame" x="124" y="274" width="72" height="52" rx="6"></rect>
  <path class="start" d="M160,268 l6,8 h-12 z"></path>
  <rect class="bit" x="156" y="268" width="8" height="8" rx="2"></rect>  <!-- Top -->
  <rect class="bit" x="196" y="300" width="8" height="8" rx="2"></rect>  <!-- Right -->

  <!-- SQUARE -> BLUE : bits 0,1,1,0 (R,B) -->
  <rect class="shape" x="116" y="372" width="88" height="88" rx="10"></rect>
  <rect class="frame" x="124" y="406" width="72" height="52" rx="6"></rect>
  <path class="start" d="M160,400 l6,8 h-12 z"></path>
  <rect class="bit" x="196" y="432" width="8" height="8" rx="2"></rect>  <!-- Right -->
  <rect class="bit" x="156" y="458" width="8" height="8" rx="2"></rect>  <!-- Bottom -->

  <!-- HEXAGON -> GREEN : bits 0,0,1,1 (B,L) -->
  <polygon class="shape" points="160,520 188,505 188,475 160,460 132,475 132,505"></polygon>
  <rect class="frame" x="124" y="486" width="72" height="52" rx="6"></rect>
  <path class="start" d="M160,480 l6,8 h-12 z"></path>
  <rect class="bit" x="156" y="538" width="8" height="8" rx="2"></rect>  <!-- Bottom -->
  <rect class="bit" x="118" y="512" width="8" height="8" rx="2"></rect>  <!-- Left -->

  <!-- RIGHT SOCKETS with matching bit notches (remove border corners at those edges) -->
  <g transform="translate(560,160)">
    <!-- YELLOW (T,L) -->
    <rect class="sock" stroke="#f59e0b" x="0" y="0" width="72" height="72" rx="12"></rect>
    <rect class="notch" x="30" y="-6" width="12" height="12" rx="2"></rect>    <!-- Top -->
    <rect class="notch" x="-6" y="30" width="12" height="12" rx="2"></rect>    <!-- Left -->

    <!-- RED (T,R) -->
    <rect class="sock" stroke="#ef4444" x="0" y="100" width="72" height="72" rx="12"></rect>
    <rect class="notch" x="30" y="94" width="12" height="12" rx="2"></rect>     <!-- Top -->
    <rect class="notch" x="66" y="130" width="12" height="12" rx="2"></rect>    <!-- Right -->

    <!-- BLUE (R,B) -->
    <rect class="sock" stroke="#3b82f6" x="0" y="200" width="72" height="72" rx="12"></rect>
    <rect class="notch" x="66" y="236" width="12" height="12" rx="2"></rect>    <!-- Right -->
    <rect class="notch" x="30" y="272" width="12" height="12" rx="2"></rect>    <!-- Bottom -->

    <!-- GREEN (B,L) -->
    <rect class="sock" stroke="#22c55e" x="0" y="300" width="72" height="72" rx="12"></rect>
    <rect class="notch" x="30" y="372" width="12" height="12" rx="2"></rect>    <!-- Bottom -->
    <rect class="notch" x="-6" y="336" width="12" height="12" rx="2"></rect>    <!-- Left -->
  </g>
</svg>
