  0
SECTION
  2
HEADER
  9
$ACADVER
  1
AC1009
  9
$INSBASE
 10
0.0
 20
0.0
 30
0.0
  9
$EXTMIN
 10
-623712.1462840967578813
 20
-740834.1526863762410358
 30
0.0
  9
$EXTMAX
 10
629287.8537159056868404
 20
527122.4971646876074374
 30
0.0
  9
$LIMMIN
 10
0.0
 20
0.0
  9
$LIMMAX
 10
12.0
 20
9.0
  9
$ORTHOMODE
 70
     0
  9
$REGENMODE
 70
     1
  9
$FILLMODE
 70
     1
  9
$QTEXTMODE
 70
     0
  9
$MIRRTEXT
 70
     0
  9
$DRAGMODE
 70
     2
  9
$LTSCALE
 40
1.0
  9
$OSMODE
 70
  1279
  9
$ATTMODE
 70
     1
  9
$TEXTSIZE
 40
0.2
  9
$TRACEWID
 40
0.05
  9
$TEXTSTYLE
  7
STANDARD
  9
$CLAYER
  8
0
  9
$CELTYPE
  6
BYLAYER
  9
$CECOLOR
 62
   256
  9
$DIMSCALE
 40
10.0
  9
$DIMASZ
 40
0.18
  9
$DIMEXO
 40
0.0625
  9
$DIMDLI
 40
0.38
  9
$DIMRND
 40
0.0
  9
$DIMDLE
 40
0.0
  9
$DIMEXE
 40
0.18
  9
$DIMTP
 40
0.0
  9
$DIMTM
 40
0.0
  9
$DIMTXT
 40
10.0
  9
$DIMCEN
 40
0.09
  9
$DIMTSZ
 40
0.0
  9
$DIMTOL
 70
     0
  9
$DIMLIM
 70
     0
  9
$DIMTIH
 70
     1
  9
$DIMTOH
 70
     1
  9
$DIMSE1
 70
     0
  9
$DIMSE2
 70
     0
  9
$DIMTAD
 70
     0
  9
$DIMZIN
 70
     0
  9
$DIMBLK
  1

  9
$DIMASO
 70
     1
  9
$DIMSHO
 70
     1
  9
$DIMPOST
  1

  9
$DIMAPOST
  1

  9
$DIMALT
 70
     0
  9
$DIMALTD
 70
     2
  9
$DIMALTF
 40
25.3999999999999986
  9
$DIMLFAC
 40
1.0
  9
$DIMTOFL
 70
     0
  9
$DIMTVP
 40
0.0
  9
$DIMTIX
 70
     0
  9
$DIMSOXD
 70
     0
  9
$DIMSAH
 70
     0
  9
$DIMBLK1
  1

  9
$DIMBLK2
  1

  9
$DIMSTYLE
  2
STANDARD
  9
$DIMCLRD
 70
     0
  9
$DIMCLRE
 70
     0
  9
$DIMCLRT
 70
     0
  9
$DIMTFAC
 40
1.0
  9
$DIMGAP
 40
0.09
  9
$LUNITS
 70
     2
  9
$LUPREC
 70
     4
  9
$SKETCHINC
 40
0.1
  9
$FILLETRAD
 40
0.0
  9
$AUNITS
 70
     0
  9
$AUPREC
 70
     0
  9
$MENU
  1
.
  9
$ELEVATION
 40
0.0
  9
$PELEVATION
 40
0.0
  9
$THICKNESS
 40
0.0
  9
$LIMCHECK
 70
     0
  9
$BLIPMODE
 70
     0
  9
$CHAMFERA
 40
0.0
  9
$CHAMFERB
 40
0.0
  9
$SKPOLY
 70
     0
  9
$TDCREATE
 40
2460927.6589004630222917
  9
$TDUPDATE
 40
2460942.7362615740858018
  9
$TDINDWG
 40
0.7944444443999999
  9
$TDUSRTIMER
 40
0.7944444443999999
  9
$USRTIMER
 70
     1
  9
$ANGBASE
 50
0.0
  9
$ANGDIR
 70
     0
  9
$PDMODE
 70
     0
  9
$PDSIZE
 40
0.0
  9
$PLINEWID
 40
0.0
  9
$COORDS
 70
     1
  9
$SPLFRAME
 70
     0
  9
$SPLINETYPE
 70
     6
  9
$SPLINESEGS
 70
     8
  9
$ATTDIA
 70
     1
  9
$ATTREQ
 70
     1
  9
$HANDLING
 70
     1
  9
$HANDSEED
  5
6ED
  9
$SURFTAB1
 70
     6
  9
$SURFTAB2
 70
     6
  9
$SURFTYPE
 70
     6
  9
$SURFU
 70
     6
  9
$SURFV
 70
     6
  9
$UCSNAME
  2

  9
$UCSORG
 10
0.0
 20
0.0
 30
0.0
  9
$UCSXDIR
 10
1.0
 20
0.0
 30
0.0
  9
$UCSYDIR
 10
0.0
 20
1.0
 30
0.0
  9
$PUCSNAME
  2

  9
$PUCSORG
 10
0.0
 20
0.0
 30
0.0
  9
$PUCSXDIR
 10
1.0
 20
0.0
 30
0.0
  9
$PUCSYDIR
 10
0.0
 20
1.0
 30
0.0
  9
$USERI1
 70
     0
  9
$USERI2
 70
     0
  9
$USERI3
 70
     0
  9
$USERI4
 70
     0
  9
$USERI5
 70
     0
  9
$USERR1
 40
0.0
  9
$USERR2
 40
0.0
  9
$USERR3
 40
0.0
  9
$USERR4
 40
0.0
  9
$USERR5
 40
0.0
  9
$WORLDVIEW
 70
     1
  9
$SHADEDGE
 70
     3
  9
$SHADEDIF
 70
    70
  9
$TILEMODE
 70
     1
  9
$MAXACTVP
 70
    64
  9
$PLIMCHECK
 70
     0
  9
$PEXTMIN
 10
1.0000000000000000E+20
 20
1.0000000000000000E+20
 30
1.0000000000000000E+20
  9
$PEXTMAX
 10
-1.0000000000000000E+20
 20
-1.0000000000000000E+20
 30
-1.0000000000000000E+20
  9
$PLIMMIN
 10
0.0
 20
0.0
  9
$PLIMMAX
 10
12.0
 20
9.0
  9
$UNITMODE
 70
     0
  9
$VISRETAIN
 70
     1
  9
$PLINEGEN
 70
     0
  9
$PSLTSCALE
 70
     1
  0
ENDSEC
  0
SECTION
  2
TABLES
  0
TABLE
  2
VPORT
 70
     1
  0
VPORT
  2
*ACTIVE
 70
     0
 10
0.0
 20
0.0
 11
1.0
 21
1.0
 12
-8.8438697759993374
 22
-12.5363985567763905
 13
0.0
 23
0.0
 14
1.0
 24
1.0
 15
0.0
 25
0.0
 16
0.0
 26
0.0
 36
1.0
 17
0.0
 27
0.0
 37
0.0
 40
278.8167864787503163
 41
2.179760319573901
 42
50.0
 43
0.0
 44
0.0
 50
0.0
 51
0.0
 71
     0
 72
  1000
 73
     1
 74
     1
 75
     1
 76
     1
 77
     0
 78
     0
  0
ENDTAB
  0
TABLE
  2
LTYPE
 70
     1
  0
LTYPE
  2
CONTINUOUS
 70
     0
  3
Solid line
 72
    65
 73
     0
 40
0.0
  0
ENDTAB
  0
TABLE
  2
LAYER
 70
    11
  0
LAYER
  2
0
 70
     0
 62
     7
  6
CONTINUOUS
  0
LAYER
  2
L-SITE-WALL
 70
     0
 62
    31
  6
CONTINUOUS
  0
LAYER
  2
A-DOOR
 70
     0
 62
    31
  6
CONTINUOUS
  0
LAYER
  2
A-WALL-PATT
 70
     0
 62
   111
  6
CONTINUOUS
  0
LAYER
  2
A-DOOR-FRAM
 70
     0
 62
    31
  6
CONTINUOUS
  0
LAYER
  2
A-DETL-THIN
 70
     0
 62
   151
  6
CONTINUOUS
  0
LAYER
  2
A-ANNO-DIMS
 70
     0
 62
   211
  6
CONTINUOUS
  0
LAYER
  2
A-ANNO-DIMS-100
 70
     0
 62
   211
  6
CONTINUOUS
  0
LAYER
  2
DEFPOINTS
 70
     0
 62
     7
  6
CONTINUOUS
  0
LAYER
  2
G-ANNO-TEXT
 70
     0
 62
   231
  6
CONTINUOUS
  0
LAYER
  2
0___1
 70
     0
 62
     7
  6
CONTINUOUS
  0
ENDTAB
  0
TABLE
  2
STYLE
 70
     4
  0
STYLE
  2
STANDARD
 70
     0
 40
2000.0
 41
1.0
 50
0.0
 71
     0
 42
0.2
  3
txt.shx
  4

  0
STYLE
  2
ANNOTATIVE
 70
     0
 40
0.0
 41
1.0
 50
0.0
 71
     0
 42
0.2
  3
txt
  4

  0
STYLE
  2
ARIAL
 70
     0
 40
250.0
 41
1.0
 50
0.0
 71
     0
 42
0.2
  3
txt
  4

  0
STYLE
  2
ARIAL_1
 70
     0
 40
8000.0
 41
1.0
 50
0.0
 71
     0
 42
0.2
  3
txt
  4

  0
ENDTAB
  0
TABLE
  2
VIEW
 70
     0
  0
ENDTAB
  0
TABLE
  2
UCS
 70
     1
  0
UCS
  2
REVIT60-DEFAULT_SITE
 70
     0
 10
0.0
 20
0.0
 30
0.0
 11
1.0
 21
0.0
 31
0.0
 12
0.0
 22
1.0
 32
0.0
  0
ENDTAB
  0
TABLE
  2
APPID
 70
    10
  0
APPID
  2
ACAD
 70
     0
  0
APPID
  2
ACADANNOTATIVE
 70
     0
  0
APPID
  2
REVIT
 70
     0
  0
APPID
  2
ACAD_NAV_VCDISPLAY
 70
     0
  0
APPID
  2
ACAD_EXEMPT_FROM_CAD_STANDARDS
 70
     0
  0
APPID
  2
ACAD_TC
 70
     0
  0
APPID
  2
ACAD_DSTYLE_DIMJAG
 70
     0
  0
APPID
  2
ACAD_DSTYLE_DIMTALN
 70
     0
  0
APPID
  2
ACADANNOTATIVEDECOMPOSITION
 70
     0
  0
APPID
  2
ACAD_MLEADERVER
 70
     0
  0
ENDTAB
  0
TABLE
  2
DIMSTYLE
 70
     3
  0
DIMSTYLE
  2
STANDARD
 70
     0
  3

  4

  5

  6

  7

 40
10.0
 41
0.18
 42
0.0625
 43
0.38
 44
0.18
 45
0.0
 46
0.0
 47
0.0
 48
0.0
140
10.0
141
0.09
142
0.0
143
25.3999999999999986
144
1.0
145
0.0
146
1.0
147
0.09
 71
     0
 72
     0
 73
     1
 74
     1
 75
     0
 76
     0
 77
     0
 78
     0
170
     0
171
     2
172
     0
173
     0
174
     0
175
     0
176
     0
177
     0
178
     0
  0
DIMSTYLE
  2
ANNOTATIVE
 70
     0
  3

  4

  5

  6

  7

 40
1.0
 41
0.18
 42
0.0625
 43
0.38
 44
0.18
 45
0.0
 46
0.0
 47
0.0
 48
0.0
140
0.18
141
0.09
142
0.0
143
25.3999999999999986
144
1.0
145
0.0
146
1.0
147
0.09
 71
     0
 72
     0
 73
     1
 74
     1
 75
     0
 76
     0
 77
     0
 78
     0
170
     0
171
     2
172
     0
173
     0
174
     0
175
     0
176
     0
177
     0
178
     0
  0
DIMSTYLE
  2
DIAGONAL_-_2_5MM_ARIAL
 70
     0
  3
<>
  4

  5

  6
OBLIQUE
  7
OBLIQUE
 40
100000.0
 41
0.4921259842519686
 42
0.4921259842519686
 43
0.38
 44
0.4921259842519686
 45
0.0
 46
0.3280839895013123
 47
0.0
 48
0.0
140
250.0
141
0.09
142
0.0
143
25.3999999999999986
144
1.0
145
1.0
146
1.0
147
0.3280839895013123
 71
     0
 72
     0
 73
     0
 74
     0
 75
     0
 76
     0
 77
     1
 78
     0
170
     0
171
     2
172
     1
173
     1
174
     0
175
     0
176
     0
177
     0
178
     0
  0
ENDTAB
  0
ENDSEC
  0
SECTION
  2
BLOCKS
  0
BLOCK
  8
0
  2
$MODEL_SPACE
 70
     0
 10
0.0
 20
0.0
 30
0.0
  3
$MODEL_SPACE
  1

  0
ENDBLK
  5
72
  8
0
  0
BLOCK
 67
     1
  8
0
  2
$PAPER_SPACE
 70
     0
 10
0.0
 20
0.0
 30
0.0
  3
$PAPER_SPACE
  1

  0
ENDBLK
  5
6E
 67
     1
  8
0
  0
BLOCK
  8
0
  2
DOORS_CONCEPT_INTDBL_-_181
 70
     0
 10
0.0
 20
0.0
 30
0.0
  3
DOORS_CONCEPT_INTDBL_-_181
  1

  0
LINE
  5
28E
  8
A-DOOR-FRAM
 10
959.9999999999912461
 20
-150.0
 30
0.0
 11
999.9999999999922693
 21
-150.0
 31
0.0
1001
REVIT
1002
{
1070
     1
1000
332134
1002
}
1002
{
1070
     5
1000
332115
1002
}
1002
{
1070
     3
1000
-2000029
1002
}
  0
LINE
  5
28F
  8
A-DOOR-FRAM
 10
999.9999999999922693
 20
150.0
 30
0.0
 11
959.9999999999912461
 21
150.0
 31
0.0
1001
REVIT
1002
{
1070
     1
1000
332134
1002
}
1002
{
1070
     5
1000
332115
1002
}
1002
{
1070
     3
1000
-2000029
1002
}
  0
LINE
  5
290
  8
A-DOOR-FRAM
 10
959.9999999999912461
 20
150.0
 30
0.0
 11
959.9999999999912461
 21
-150.0
 31
0.0
1001
REVIT
1002
{
1070
     1
1000
332134
1002
}
1002
{
1070
     5
1000
332115
1002
}
1002
{
1070
     3
1000
-2000029
1002
}
  0
LINE
  5
291
  8
A-DOOR-FRAM
 10
-999.9999999999976126
 20
-150.0
 30
0.0
 11
-959.9999999999932925
 21
-150.0
 31
0.0
1001
REVIT
1002
{
1070
     1
1000
332134
1002
}
1002
{
1070
     5
1000
332115
1002
}
1002
{
1070
     3
1000
-2000029
1002
}
  0
LINE
  5
292
  8
A-DOOR-FRAM
 10
-959.9999999999932925
 20
-150.0
 30
0.0
 11
-959.9999999999932925
 21
150.0
 31
0.0
1001
REVIT
1002
{
1070
     1
1000
332134
1002
}
1002
{
1070
     5
1000
332115
1002
}
1002
{
1070
     3
1000
-2000029
1002
}
  0
LINE
  5
293
  8
A-DOOR-FRAM
 10
-959.9999999999932925
 20
150.0
 30
0.0
 11
-999.9999999999976126
 21
150.0
 31
0.0
1001
REVIT
1002
{
1070
     1
1000
332134
1002
}
1002
{
1070
     5
1000
332115
1002
}
1002
{
1070
     3
1000
-2000029
1002
}
  0
LINE
  5
294
  8
A-DOOR-FRAM
 10
-940.9999999999936335
 20
83.0000000009553531
 30
0.0
 11
-940.9999999999936335
 21
115.0000000009552963
 31
0.0
1001
REVIT
1002
{
1070
     1
1000
332134
1002
}
1002
{
1070
     5
1000
332115
1002
}
1002
{
1070
     3
1000
-2000029
1002
}
  0
LINE
  5
295
  8
A-DOOR-FRAM
 10
-940.9999999999936335
 20
115.0000000009552963
 30
0.0
 11
-959.9999999999954525
 21
115.0000000009552963
 31
0.0
1001
REVIT
1002
{
1070
     1
1000
332134
1002
}
1002
{
1070
     5
1000
332115
1002
}
1002
{
1070
     3
1000
-2000029
1002
}
  0
LINE
  5
296
  8
A-DOOR-FRAM
 10
-959.9999999999954525
 20
115.0000000009552963
 30
0.0
 11
-959.9999999999954525
 21
83.0000000009553531
 31
0.0
1001
REVIT
1002
{
1070
     1
1000
332134
1002
}
1002
{
1070
     5
1000
332115
1002
}
1002
{
1070
     3
1000
-2000029
1002
}
  0
LINE
  5
297
  8
A-DOOR-FRAM
 10
-959.9999999999954525
 20
83.0000000009553531
 30
0.0
 11
-940.9999999999936335
 21
83.0000000009553531
 31
0.0
1001
REVIT
1002
{
1070
     1
1000
332134
1002
}
1002
{
1070
     5
1000
332115
1002
}
1002
{
1070
     3
1000
-2000029
1002
}
  0
LINE
  5
298
  8
A-DOOR-FRAM
 10
940.9999999999915872
 20
115.0000000009552963
 30
0.0
 11
940.9999999999915872
 21
83.0000000009553531
 31
0.0
1001
REVIT
1002
{
1070
     1
1000
332134
1002
}
1002
{
1070
     5
1000
332115
1002
}
1002
{
1070
     3
1000
-2000029
1002
}
  0
LINE
  5
299
  8
A-DOOR-FRAM
 10
940.9999999999915872
 20
83.0000000009553531
 30
0.0
 11
959.9999999999932925
 21
83.0000000009553531
 31
0.0
1001
REVIT
1002
{
1070
     1
1000
332134
1002
}
1002
{
1070
     5
1000
332115
1002
}
1002
{
1070
     3
1000
-2000029
1002
}
  0
LINE
  5
29A
  8
A-DOOR-FRAM
 10
959.9999999999932925
 20
83.0000000009553531
 30
0.0
 11
959.9999999999932925
 21
115.0000000009552963
 31
0.0
1001
REVIT
1002
{
1070
     1
1000
332134
1002
}
1002
{
1070
     5
1000
332115
1002
}
1002
{
1070
     3
1000
-2000029
1002
}
  0
LINE
  5
29B
  8
A-DOOR-FRAM
 10
959.9999999999932925
 20
115.0000000009552963
 30
0.0
 11
940.9999999999915872
 21
115.0000000009552963
 31
0.0
1001
REVIT
1002
{
1070
     1
1000
332134
1002
}
1002
{
1070
     5
1000
332115
1002
}
1002
{
1070
     3
1000
-2000029
1002
}
  0
LINE
  5
29C
  8
A-DOOR
 10
1034.9999999999909051
 20
150.0000000009524967
 30
0.0
 11
1034.9999999999920419
 21
170.0000000009524115
 31
0.0
1001
REVIT
1002
{
1070
     1
1000
332134
1002
}
1002
{
1070
     5
1000
332115
1002
}
1002
{
1070
     3
1000
21117
1002
}
  0
LINE
  5
29D
  8
A-DOOR
 10
1034.9999999999920419
 20
170.0000000009524115
 30
0.0
 11
994.9999999999914735
 21
170.0000000009526957
 31
0.0
1001
REVIT
1002
{
1070
     1
1000
332134
1002
}
1002
{
1070
     5
1000
332115
1002
}
1002
{
1070
     3
1000
21117
1002
}
  0
LINE
  5
29E
  8
A-DOOR
 10
994.9999999999914735
 20
170.0000000009526957
 30
0.0
 11
968.9999999999915872
 21
156.0000000009528094
 31
0.0
1001
REVIT
1002
{
1070
     1
1000
332134
1002
}
1002
{
1070
     5
1000
332115
1002
}
1002
{
1070
     3
1000
21117
1002
}
  0
ARC
  5
29F
  8
A-DOOR
 10
972.9999999999915872
 20
149.0000000009528094
 30
0.0
 40
8.0622577482984941
 50
119.7448812969414007
 51
172.8749836510968123
1001
REVIT
1002
{
1070
     1
1000
332134
1002
}
1002
{
1070
     5
1000
332115
1002
}
1002
{
1070
     3
1000
21117
1002
}
  0
LINE
  5
2A0
  8
A-DOOR
 10
964.9999999999915872
 20
150.0000000009528947
 30
0.0
 11
999.9999999999912461
 21
150.0000000009526957
 31
0.0
1001
REVIT
1002
{
1070
     1
1000
332134
1002
}
1002
{
1070
     5
1000
332115
1002
}
1002
{
1070
     3
1000
21117
1002
}
  0
LINE
  5
2A1
  8
A-DOOR
 10
-1000.0000000000890168
 20
150.0000000009625012
 30
0.0
 11
-964.9999999999920419
 21
150.0000000009590906
 31
0.0
1001
REVIT
1002
{
1070
     1
1000
332134
1002
}
1002
{
1070
     5
1000
332115
1002
}
1002
{
1070
     3
1000
21117
1002
}
  0
ARC
  5
2A2
  8
A-DOOR
 10
-972.9999999999920419
 20
149.0000000009590053
 30
0.0
 40
8.0622577482985491
 50
7.1250163489024141
 51
60.2551187030560271
1001
REVIT
1002
{
1070
     1
1000
332134
1002
}
1002
{
1070
     5
1000
332115
1002
}
1002
{
1070
     3
1000
21117
1002
}
  0
LINE
  5
2A3
  8
A-DOOR
 10
-968.9999999999915872
 20
156.0000000009590906
 30
0.0
 11
-994.9999999999914735
 21
170.0000000009655992
 31
0.0
1001
REVIT
1002
{
1070
     1
1000
332134
1002
}
1002
{
1070
     5
1000
332115
1002
}
1002
{
1070
     3
1000
21117
1002
}
  0
LINE
  5
2A4
  8
A-DOOR
 10
-994.9999999999914735
 20
170.0000000009655992
 30
0.0
 11
-1034.9999999999920419
 21
170.0000000009590906
 31
0.0
1001
REVIT
1002
{
1070
     1
1000
332134
1002
}
1002
{
1070
     5
1000
332115
1002
}
1002
{
1070
     3
1000
21117
1002
}
  0
LINE
  5
2A5
  8
A-DOOR
 10
-1034.9999999999920419
 20
170.0000000009590906
 30
0.0
 11
-1034.9999999999920419
 21
150.0000000009659118
 31
0.0
1001
REVIT
1002
{
1070
     1
1000
332134
1002
}
1002
{
1070
     5
1000
332115
1002
}
1002
{
1070
     3
1000
21117
1002
}
  0
ARC
  5
2A6
  8
A-DOOR
 10
972.9999999999915872
 20
149.0000000009528094
 30
0.0
 40
8.0622577482985633
 50
133.0274068854807865
 51
172.8749836510972102
1001
REVIT
1002
{
1070
     1
1000
332134
1002
}
1002
{
1070
     5
1000
332115
1002
}
1002
{
1070
     3
1000
21117
1002
}
  0
ARC
  5
2A7
  8
A-DOOR
 10
-972.9999999999920419
 20
149.0000000009590053
 30
0.0
 40
8.0622577482985811
 50
7.1250163489028511
 51
46.9725931145194266
1001
REVIT
1002
{
1070
     1
1000
332134
1002
}
1002
{
1070
     5
1000
332115
1002
}
1002
{
1070
     3
1000
21117
1002
}
  0
LINE
  5
2A8
  8
A-DOOR
 10
999.9999999999906777
 20
-150.0000000000001137
 30
0.0
 11
964.9999999999912461
 21
-150.0
 31
0.0
1001
REVIT
1002
{
1070
     1
1000
332134
1002
}
1002
{
1070
     5
1000
332115
1002
}
1002
{
1070
     3
1000
21117
1002
}
  0
ARC
  5
2A9
  8
A-DOOR
 10
972.999999999990564
 20
-149.0
 30
0.0
 40
8.0622577482984514
 50
187.1250163489021077
 51
240.2551187030560982
1001
REVIT
1002
{
1070
     1
1000
332134
1002
}
1002
{
1070
     5
1000
332115
1002
}
1002
{
1070
     3
1000
21117
1002
}
  0
LINE
  5
2AA
  8
A-DOOR
 10
968.9999999999906777
 20
-156.0
 30
0.0
 11
994.9999999999910187
 21
-170.0
 31
0.0
1001
REVIT
1002
{
1070
     1
1000
332134
1002
}
1002
{
1070
     5
1000
332115
1002
}
1002
{
1070
     3
1000
21117
1002
}
  0
LINE
  5
2AB
  8
A-DOOR
 10
994.9999999999910187
 20
-170.0
 30
0.0
 11
1034.9999999999909051
 21
-170.0
 31
0.0
1001
REVIT
1002
{
1070
     1
1000
332134
1002
}
1002
{
1070
     5
1000
332115
1002
}
1002
{
1070
     3
1000
21117
1002
}
  0
LINE
  5
2AC
  8
A-DOOR
 10
1034.9999999999909051
 20
-170.0
 30
0.0
 11
1034.9999999999909051
 21
-150.0000000000001137
 31
0.0
1001
REVIT
1002
{
1070
     1
1000
332134
1002
}
1002
{
1070
     5
1000
332115
1002
}
1002
{
1070
     3
1000
21117
1002
}
  0
LINE
  5
2AD
  8
A-DOOR
 10
-1034.9999999999920419
 20
-150.0000000000001137
 30
0.0
 11
-1034.9999999999920419
 21
-170.0
 31
0.0
1001
REVIT
1002
{
1070
     1
1000
332134
1002
}
1002
{
1070
     5
1000
332115
1002
}
1002
{
1070
     3
1000
21117
1002
}
  0
LINE
  5
2AE
  8
A-DOOR
 10
-1034.9999999999920419
 20
-170.0
 30
0.0
 11
-994.999999999992383
 21
-170.0
 31
0.0
1001
REVIT
1002
{
1070
     1
1000
332134
1002
}
1002
{
1070
     5
1000
332115
1002
}
1002
{
1070
     3
1000
21117
1002
}
  0
LINE
  5
2AF
  8
A-DOOR
 10
-994.999999999992383
 20
-170.0
 30
0.0
 11
-968.999999999992383
 21
-156.0
 31
0.0
1001
REVIT
1002
{
1070
     1
1000
332134
1002
}
1002
{
1070
     5
1000
332115
1002
}
1002
{
1070
     3
1000
21117
1002
}
  0
ARC
  5
2B0
  8
A-DOOR
 10
-972.999999999992383
 20
-149.0
 30
0.0
 40
8.0622577482985491
 50
299.7448812969419123
 51
352.874983651096727
1001
REVIT
1002
{
1070
     1
1000
332134
1002
}
1002
{
1070
     5
1000
332115
1002
}
1002
{
1070
     3
1000
21117
1002
}
  0
LINE
  5
2B1
  8
A-DOOR
 10
-964.9999999999922693
 20
-150.0
 30
0.0
 11
-1000.00000000009004
 21
-150.0000000000001137
 31
0.0
1001
REVIT
1002
{
1070
     1
1000
332134
1002
}
1002
{
1070
     5
1000
332115
1002
}
1002
{
1070
     3
1000
21117
1002
}
  0
ARC
  5
2B2
  8
A-DOOR
 10
-972.999999999992383
 20
-149.0
 30
0.0
 40
8.0622577482984514
 50
313.0274068854810139
 51
352.8749836510971818
1001
REVIT
1002
{
1070
     1
1000
332134
1002
}
1002
{
1070
     5
1000
332115
1002
}
1002
{
1070
     3
1000
21117
1002
}
  0
ARC
  5
2B3
  8
A-DOOR
 10
972.999999999990564
 20
-149.0
 30
0.0
 40
8.0622577482985012
 50
187.1250163489025056
 51
226.9725931145192988
1001
REVIT
1002
{
1070
     1
1000
332134
1002
}
1002
{
1070
     5
1000
332115
1002
}
1002
{
1070
     3
1000
21117
1002
}
  0
LINE
  5
2B4
  8
A-DOOR
 10
-956.9999999999961346
 20
149.9999999999942872
 30
0.0
 11
-924.999999999996021
 21
149.9999999999942872
 31
0.0
1001
REVIT
1002
{
1070
     1
1000
332134
1002
}
1002
{
1070
     5
1000
332115
1002
}
1002
{
1070
     3
1000
-2000025
1002
}
  0
LINE
  5
2B5
  8
A-DOOR
 10
-956.9999999999961346
 20
1105.4999999999820375
 30
0.0
 11
-956.9999999999961346
 21
149.9999999999942872
 31
0.0
1001
REVIT
1002
{
1070
     1
1000
332134
1002
}
1002
{
1070
     5
1000
332115
1002
}
1002
{
1070
     3
1000
-2000025
1002
}
  0
LINE
  5
2B6
  8
A-DOOR
 10
-924.999999999996021
 20
1105.4999999999820375
 30
0.0
 11
-957.1082361516022274
 21
1105.4999999999820375
 31
0.0
1001
REVIT
1002
{
1070
     1
1000
332134
1002
}
1002
{
1070
     5
1000
332115
1002
}
1002
{
1070
     3
1000
-2000025
1002
}
  0
LINE
  5
2B7
  8
A-DOOR
 10
-924.999999999996021
 20
149.9999999999942872
 30
0.0
 11
-924.999999999996021
 21
1105.4999999999820375
 31
0.0
1001
REVIT
1002
{
1070
     1
1000
332134
1002
}
1002
{
1070
     5
1000
332115
1002
}
1002
{
1070
     3
1000
-2000025
1002
}
  0
LINE
  5
2B8
  8
A-DOOR
 10
956.9999999999912461
 20
149.9999999999965894
 30
0.0
 11
924.9999999999912461
 21
149.9999999999965894
 31
0.0
1001
REVIT
1002
{
1070
     1
1000
332134
1002
}
1002
{
1070
     5
1000
332115
1002
}
1002
{
1070
     3
1000
-2000025
1002
}
  0
LINE
  5
2B9
  8
A-DOOR
 10
956.9999999999912461
 20
1105.5000000009520136
 30
0.0
 11
956.9999999999912461
 21
149.9999999999965894
 31
0.0
1001
REVIT
1002
{
1070
     1
1000
332134
1002
}
1002
{
1070
     5
1000
332115
1002
}
1002
{
1070
     3
1000
-2000025
1002
}
  0
LINE
  5
2BA
  8
A-DOOR
 10
924.9999999999912461
 20
1105.5000000009520136
 30
0.0
 11
956.9999999999912461
 21
1105.5000000009520136
 31
0.0
1001
REVIT
1002
{
1070
     1
1000
332134
1002
}
1002
{
1070
     5
1000
332115
1002
}
1002
{
1070
     3
1000
-2000025
1002
}
  0
LINE
  5
2BB
  8
A-DOOR
 10
924.9999999999912461
 20
149.9999999999965894
 30
0.0
 11
924.9999999999912461
 21
1105.5000000009520136
 31
0.0
1001
REVIT
1002
{
1070
     1
1000
332134
1002
}
1002
{
1070
     5
1000
332115
1002
}
1002
{
1070
     3
1000
-2000025
1002
}
  0
ARC
  5
2BC
  8
A-DOOR
 10
-957.1082361516041601
 20
149.9990394767789894
 30
0.0
 40
955.5009605232037302
 50
359.9999999999996021
 51
90.0000000000000568
1001
REVIT
1002
{
1070
     1
1000
332134
1002
}
1002
{
1070
     5
1000
332115
1002
}
1002
{
1070
     3
1000
1951
1002
}
  0
ARC
  5
2BD
  8
A-DOOR
 10
956.9999999999896545
 20
150.0000000009534062
 30
0.0
 40
955.4999999999976126
 50
89.9999999999999147
 51
179.999999999999801
1001
REVIT
1002
{
1070
     1
1000
332134
1002
}
1002
{
1070
     5
1000
332115
1002
}
1002
{
1070
     3
1000
1951
1002
}
  0
ENDBLK
  5
2BF
  8
0
  0
BLOCK
  8
0
  2
_OBLIQUE
 70
     0
 10
0.0
 20
0.0
 30
0.0
  3
_OBLIQUE
  1

  0
LINE
  5
36C
  8
0
  6
BYBLOCK
 62
     0
 10
-0.5
 20
-0.5
 30
0.0
 11
0.5
 21
0.5
 31
0.0
  0
ENDBLK
  5
36E
  8
0
  0
BLOCK
  8
0
  2
DIMBLOCK1-LEVEL_0
 70
     0
 10
0.0
 20
0.0
 30
0.0
  3
DIMBLOCK1-LEVEL_0
  1

  0
LINE
  5
35D
  8
A-ANNO-DIMS-100
 10
-24581.782022165840317
 20
31216.1921470954912365
 30
0.0
 11
-24581.782022165840317
 21
29366.192147095589462
 31
0.0
1001
REVIT
1002
{
1070
     1
1000
328107
1002
}
1002
{
1070
     5
1000
261
1002
}
1002
{
1070
     2
1000
-2000260
1002
}
  0
LINE
  5
35E
  8
A-ANNO-DIMS-100
 10
-24581.782022165840317
 20
29466.192147095589462
 30
0.0
 11
-24656.782022165840317
 21
29541.192147095578548
 31
0.0
1001
REVIT
1002
{
1070
     1
1000
328107
1002
}
1002
{
1070
     5
1000
261
1002
}
1002
{
1070
     2
1000
-2000260
1002
}
  0
LINE
  5
35F
  8
A-ANNO-DIMS-100
 10
-24581.782022165840317
 20
29466.192147095589462
 30
0.0
 11
-24506.782022165840317
 21
29391.192147095589462
 31
0.0
1001
REVIT
1002
{
1070
     1
1000
328107
1002
}
1002
{
1070
     5
1000
261
1002
}
1002
{
1070
     2
1000
-2000260
1002
}
  0
LINE
  5
360
  8
A-ANNO-DIMS-100
 10
-24581.782022165840317
 20
29466.192147095589462
 30
0.0
 11
-24431.782022165840317
 21
29466.192147095589462
 31
0.0
1001
REVIT
1002
{
1070
     1
1000
328107
1002
}
1002
{
1070
     5
1000
261
1002
}
1002
{
1070
     2
1000
-2000260
1002
}
  0
LINE
  5
361
  8
A-ANNO-DIMS-100
 10
-24581.782022165840317
 20
29466.192147095589462
 30
0.0
 11
-24625.7160049878584687
 21
29466.192147095589462
 31
0.0
1001
REVIT
1002
{
1070
     1
1000
328107
1002
}
1002
{
1070
     5
1000
261
1002
}
1002
{
1070
     2
1000
-2000260
1002
}
  0
LINE
  5
362
  8
A-ANNO-DIMS-100
 10
-24581.782022165840317
 20
31116.1921470954912365
 30
0.0
 11
-24656.782022165840317
 21
31191.1921470954912365
 31
0.0
1001
REVIT
1002
{
1070
     1
1000
328107
1002
}
1002
{
1070
     5
1000
261
1002
}
1002
{
1070
     2
1000
-2000260
1002
}
  0
LINE
  5
363
  8
A-ANNO-DIMS-100
 10
-24581.782022165840317
 20
31116.1921470954912365
 30
0.0
 11
-24506.782022165840317
 21
31041.1921470954912365
 31
0.0
1001
REVIT
1002
{
1070
     1
1000
328107
1002
}
1002
{
1070
     5
1000
261
1002
}
1002
{
1070
     2
1000
-2000260
1002
}
  0
LINE
  5
364
  8
A-ANNO-DIMS-100
 10
-24581.782022165840317
 20
31116.1921470954912365
 30
0.0
 11
-24731.782022165851231
 21
31116.1921470954912365
 31
0.0
1001
REVIT
1002
{
1070
     1
1000
328107
1002
}
1002
{
1070
     5
1000
261
1002
}
1002
{
1070
     2
1000
-2000260
1002
}
  0
LINE
  5
365
  8
A-ANNO-DIMS-100
 10
-24581.782022165840317
 20
31116.1921470954912365
 30
0.0
 11
-23198.0045746481409878
 21
31116.1921470954912365
 31
0.0
1001
REVIT
1002
{
1070
     1
1000
328107
1002
}
1002
{
1070
     5
1000
261
1002
}
1002
{
1070
     2
1000
-2000260
1002
}
  0
INSERT
  5
367
  8
0
  2
*U9
 10
0.0
 20
0.0
 30
0.0
  0
ENDBLK
  5
369
  8
0
  0
BLOCK
  8
0
  2
*D4
 70
     1
 10
0.0
 20
0.0
 30
0.0
  3
*D4
  1

  0
LINE
  5
5A0
  8
0
 62
     0
 10
-623712.1462840967578813
 20
-502283.8703529036138207
 30
0.0
 11
-623712.1462840967578813
 21
-739834.3326863758265972
 31
0.0
  0
LINE
  5
5A1
  8
0
 62
     0
 10
629287.8537159039406106
 20
-502283.8703529036138207
 30
0.0
 11
629287.8537159039406106
 21
-739834.3326863758265972
 31
0.0
  0
LINE
  5
5A2
  8
0
 62
     0
 10
-623711.9662840967066586
 20
-739834.1526863758917898
 30
0.0
 11
-6793.8631779925526644
 21
-739834.1526863758917898
 31
0.0
  0
LINE
  5
5A3
  8
0
 62
     0
 10
629287.6737159041222185
 20
-739834.1526863758917898
 30
0.0
 11
12206.3168220074494457
 21
-739834.1526863758917898
 31
0.0
  0
SOLID
  5
5A4
  8
0
 62
     0
 10
-623711.9662840967066586
 20
-739834.1226863759802654
 30
0.0
 11
-623711.9662840967066586
 21
-739834.1826863759197295
 31
0.0
 12
-623712.1462840967578813
 22
-739834.1526863758917898
 32
0.0
 13
-623712.1462840967578813
 23
-739834.1526863758917898
 33
0.0
  0
SOLID
  5
5A5
  8
0
 62
     0
 10
629287.6737159041222185
 20
-739834.1226863759802654
 30
0.0
 11
629287.6737159041222185
 21
-739834.1826863759197295
 31
0.0
 12
629287.8537159039406106
 22
-739834.1526863758917898
 32
0.0
 13
629287.8537159039406106
 23
-739834.1526863758917898
 33
0.0
  0
INSERT
  5
5A6
  8
0
  2
*U10
 10
0.0
 20
0.0
 30
0.0
  0
POINT
  5
5A7
  8
DEFPOINTS
 62
     0
 10
-623712.1462840967578813
 20
-502283.8078529034974054
 30
0.0
  0
POINT
  5
5A8
  8
DEFPOINTS
 62
     0
 10
629287.8537159039406106
 20
-502283.8078529034974054
 30
0.0
  0
POINT
  5
5A9
  8
DEFPOINTS
 62
     0
 10
629287.8537159039406106
 20
-739834.1526863758917898
 30
0.0
  0
ENDBLK
  5
59F
  8
0
  0
BLOCK
  8
0
  2
*D5
 70
     1
 10
0.0
 20
0.0
 30
0.0
  3
*D5
  1

  0
LINE
  5
5BE
  8
0
 62
     0
 10
-88435.0695657874748576
 20
-53283.8703529043268645
 30
0.0
 11
-88435.0695657874748576
 21
-60511.9165924939370598
 31
0.0
  0
LINE
  5
5BF
  8
0
 62
     0
 10
83887.8537159048573812
 20
-53283.8703529046106269
 30
0.0
 11
83887.8537159048573812
 21
-60511.9165924939370598
 31
0.0
  0
LINE
  5
5C0
  8
0
 62
     0
 10
-88434.8895657874963945
 20
-60511.7365924939367687
 30
0.0
 11
-11940.3645916079603921
 21
-60511.7365924939367687
 31
0.0
  0
LINE
  5
5C1
  8
0
 62
     0
 10
83887.6737159048643662
 20
-60511.7365924939367687
 30
0.0
 11
7393.1487417253720196
 21
-60511.7365924939367687
 31
0.0
  0
SOLID
  5
5C2
  8
0
 62
     0
 10
-88434.8895657874963945
 20
-60511.7065924939379329
 30
0.0
 11
-88434.8895657874963945
 21
-60511.7665924939428805
 31
0.0
 12
-88435.0695657874748576
 22
-60511.7365924939367687
 32
0.0
 13
-88435.0695657874748576
 23
-60511.7365924939367687
 33
0.0
  0
SOLID
  5
5C3
  8
0
 62
     0
 10
83887.6737159048643662
 20
-60511.7065924939379329
 30
0.0
 11
83887.6737159048643662
 21
-60511.7665924939428805
 31
0.0
 12
83887.8537159048573812
 22
-60511.7365924939367687
 32
0.0
 13
83887.8537159048573812
 23
-60511.7365924939367687
 33
0.0
  0
INSERT
  5
5C4
  8
0
  2
*U11
 10
0.0
 20
0.0
 30
0.0
  0
POINT
  5
5C5
  8
DEFPOINTS
 62
     0
 10
-88435.0695657874748576
 20
-53283.8078529043268645
 30
0.0
  0
POINT
  5
5C6
  8
DEFPOINTS
 62
     0
 10
83887.8537159048573812
 20
-53283.8078529046106269
 30
0.0
  0
POINT
  5
5C7
  8
DEFPOINTS
 62
     0
 10
83887.8537159048573812
 20
-60511.7365924939367687
 30
0.0
  0
ENDBLK
  5
5BD
  8
0
  0
BLOCK
  8
0
  2
*D6
 70
     1
 10
0.0
 20
0.0
 30
0.0
  3
*D6
  1

  0
LINE
  5
60D
  8
0
 62
     0
 10
-88372.3075007963634562
 20
-53201.2078529043574235
 30
0.0
 11
-88370.6499035673041362
 21
-53201.2078529043574235
 31
0.0
  0
LINE
  5
60E
  8
0
 62
     0
 10
-88372.3075007963634562
 20
-53207.2078529043574235
 30
0.0
 11
-88370.6499035673041362
 21
-53207.2078529043574235
 31
0.0
  0
LINE
  5
60F
  8
0
 62
     0
 10
-88372.4499035673070466
 20
-53203.0078529043603339
 30
0.0
 11
-88372.4499035673070466
 21
-53205.4078529043617891
 31
0.0
  0
LINE
  5
610
  8
0
 62
     0
 10
-88372.4499035673070466
 20
-53207.2078529043574235
 30
0.0
 11
-88372.4499035673070466
 21
-53209.0078529043676099
 31
0.0
  0
LINE
  5
611
  8
0
 62
     0
 10
-88372.4499035673070466
 20
-53209.0078529043676099
 30
0.0
 11
-88374.2499035673245089
 21
-53209.0078529043676099
 31
0.0
  0
SOLID
  5
612
  8
0
 62
     0
 10
-88372.7499035673245089
 20
-53203.0078529043603339
 30
0.0
 11
-88372.1499035673186881
 21
-53203.0078529043603339
 31
0.0
 12
-88372.4499035673070466
 22
-53201.2078529043574235
 32
0.0
 13
-88372.4499035673070466
 23
-53201.2078529043574235
 33
0.0
  0
SOLID
  5
613
  8
0
 62
     0
 10
-88372.7499035673245089
 20
-53205.4078529043617891
 30
0.0
 11
-88372.1499035673186881
 21
-53205.4078529043617891
 31
0.0
 12
-88372.4499035673070466
 22
-53207.2078529043574235
 32
0.0
 13
-88372.4499035673070466
 23
-53207.2078529043574235
 33
0.0
  0
INSERT
  5
614
  8
0
  2
*U12
 10
0.0
 20
0.0
 30
0.0
  0
POINT
  5
615
  8
DEFPOINTS
 62
     0
 10
-88372.9325007963489043
 20
-53201.2078529043574235
 30
0.0
  0
POINT
  5
616
  8
DEFPOINTS
 62
     0
 10
-88372.9325007963489043
 20
-53207.2078529043574235
 30
0.0
  0
POINT
  5
617
  8
DEFPOINTS
 62
     0
 10
-88372.4499035673070466
 20
-53207.2078529043574235
 30
0.0
  0
ENDBLK
  5
5D3
  8
0
  0
BLOCK
  8
0
  2
*D7
 70
     1
 10
0.0
 20
0.0
 30
0.0
  3
*D7
  1

  0
LINE
  5
618
  8
0
 62
     0
 10
-88435.0695657874748576
 20
-53284.4328529043268645
 30
0.0
 11
-88435.0695657874748576
 21
-63669.9115757116669556
 31
0.0
  0
LINE
  5
619
  8
0
 62
     0
 10
-88262.746642505764612
 20
-53284.4328529043268645
 30
0.0
 11
-88262.746642505764612
 21
-63669.9115757116669556
 31
0.0
  0
LINE
  5
61A
  8
0
 62
     0
 10
-88433.2695657874864992
 20
-63668.1115757116713212
 30
0.0
 11
-88264.5466425057820743
 21
-63668.1115757116713212
 31
0.0
  0
LINE
  5
61B
  8
0
 62
     0
 10
-88262.746642505764612
 20
-63668.1115757116713212
 30
0.0
 11
-88260.9466425057762535
 21
-63668.1115757116713212
 31
0.0
  0
SOLID
  5
61C
  8
0
 62
     0
 10
-88433.2695657874864992
 20
-63667.8115757116611348
 30
0.0
 11
-88433.2695657874864992
 21
-63668.4115757116596797
 31
0.0
 12
-88435.0695657874748576
 22
-63668.1115757116713212
 32
0.0
 13
-88435.0695657874748576
 23
-63668.1115757116713212
 33
0.0
  0
SOLID
  5
61D
  8
0
 62
     0
 10
-88264.5466425057820743
 20
-63667.8115757116611348
 30
0.0
 11
-88264.5466425057820743
 21
-63668.4115757116596797
 31
0.0
 12
-88262.746642505764612
 22
-63668.1115757116713212
 32
0.0
 13
-88262.746642505764612
 23
-63668.1115757116713212
 33
0.0
  0
INSERT
  5
61E
  8
0
  2
*U13
 10
0.0
 20
0.0
 30
0.0
  0
POINT
  5
61F
  8
DEFPOINTS
 62
     0
 10
-88435.0695657874748576
 20
-53283.8078529043268645
 30
0.0
  0
POINT
  5
620
  8
DEFPOINTS
 62
     0
 10
-88262.746642505764612
 20
-53283.8078529043268645
 30
0.0
  0
POINT
  5
621
  8
DEFPOINTS
 62
     0
 10
-88262.746642505764612
 20
-63668.1115757116713212
 30
0.0
  0
ENDBLK
  5
5F6
  8
0
  0
BLOCK
  8
0
  2
*D8
 70
     1
 10
0.0
 20
0.0
 30
0.0
  3
*D8
  1

  0
LINE
  5
631
  8
0
 62
     0
 10
-88435.0695657874748576
 20
-53284.4328529043268645
 30
0.0
 11
-88435.0695657874748576
 21
-53296.1138826149472152
 31
0.0
  0
LINE
  5
632
  8
0
 62
     0
 10
-88262.746642505764612
 20
-53284.4328529043268645
 30
0.0
 11
-88262.746642505764612
 21
-53296.1138826149472152
 31
0.0
  0
LINE
  5
633
  8
0
 62
     0
 10
-88433.2695657874864992
 20
-53294.3138826149515808
 30
0.0
 11
-88264.5466425057820743
 21
-53294.3138826149515808
 31
0.0
  0
LINE
  5
634
  8
0
 62
     0
 10
-88262.746642505764612
 20
-53294.3138826149515808
 30
0.0
 11
-88260.9466425057762535
 21
-53294.3138826149515808
 31
0.0
  0
SOLID
  5
635
  8
0
 62
     0
 10
-88433.2695657874864992
 20
-53294.0138826149413944
 30
0.0
 11
-88433.2695657874864992
 21
-53294.6138826149617671
 31
0.0
 12
-88435.0695657874748576
 22
-53294.3138826149515808
 32
0.0
 13
-88435.0695657874748576
 23
-53294.3138826149515808
 33
0.0
  0
SOLID
  5
636
  8
0
 62
     0
 10
-88264.5466425057820743
 20
-53294.0138826149413944
 30
0.0
 11
-88264.5466425057820743
 21
-53294.6138826149617671
 31
0.0
 12
-88262.746642505764612
 22
-53294.3138826149515808
 32
0.0
 13
-88262.746642505764612
 23
-53294.3138826149515808
 33
0.0
  0
INSERT
  5
637
  8
0
  2
*U14
 10
0.0
 20
0.0
 30
0.0
  0
POINT
  5
638
  8
DEFPOINTS
 62
     0
 10
-88435.0695657874748576
 20
-53283.8078529043268645
 30
0.0
  0
POINT
  5
639
  8
DEFPOINTS
 62
     0
 10
-88262.746642505764612
 20
-53283.8078529043268645
 30
0.0
  0
POINT
  5
63A
  8
DEFPOINTS
 62
     0
 10
-88262.746642505764612
 20
-53294.3138826149515808
 30
0.0
  0
ENDBLK
  5
625
  8
0
  0
BLOCK
  8
0
  2
*U9
 70
     1
 10
0.0
 20
0.0
 30
0.0
  3
*U9
  1

  0
TEXT
  5
6D2
  8
A-ANNO-DIMS-100
 62
     0
 10
-24756.3394398550008191
 20
29868.6041854179784423
 30
0.0
 40
250.0
  1
1650
 50
90.0
  7
ARIAL
  0
ENDBLK
  5
6D4
  8
0
  0
BLOCK
  8
0
  2
*U10
 70
     1
 10
0.0
 20
0.0
 30
0.0
  3
*U10
  1

  0
TEXT
  5
6DA
  8
0
 62
     0
 10
-6793.7731779925516093
 20
-740834.1526863758917898
 30
0.0
 40
2000.0
  1
1253000.0000
  0
ENDBLK
  5
6DC
  8
0
  0
BLOCK
  8
0
  2
*U11
 70
     1
 10
0.0
 20
0.0
 30
0.0
  3
*U11
  1

  0
TEXT
  5
6DE
  8
0
 62
     0
 10
-11940.2745916079602466
 20
-61511.7365924939294928
 30
0.0
 40
2000.0
  1
172322.9233
  0
ENDBLK
  5
6E0
  8
0
  0
BLOCK
  8
0
  2
*U12
 70
     1
 10
0.0
 20
0.0
 30
0.0
  3
*U12
  1

  0
TEXT
  5
6E2
  8
0
 62
     0
 10
-97041.8165702339756535
 20
-54209.0078529043166782
 30
0.0
 40
2000.0
  1
6.0000
  0
ENDBLK
  5
6E4
  8
0
  0
BLOCK
  8
0
  2
*U13
 70
     1
 10
0.0
 20
0.0
 30
0.0
  3
*U13
  1

  0
TEXT
  5
6E6
  8
0
 62
     0
 10
-88260.0466425057966262
 20
-64668.1115757116567693
 30
0.0
 40
2000.0
  1
172.3229
  0
ENDBLK
  5
6E8
  8
0
  0
BLOCK
  8
0
  2
*U14
 70
     1
 10
0.0
 20
0.0
 30
0.0
  3
*U14
  1

  0
TEXT
  5
6EA
  8
0
 62
     0
 10
-88260.0466425057966262
 20
-54294.3138826149515808
 30
0.0
 40
2000.0
  1
172.3229
  0
ENDBLK
  5
6EC
  8
0
  0
ENDSEC
  0
SECTION
  2
ENTITIES
  0
LINE
  5
8A
  8
L-SITE-WALL
 10
-19.6230239659635117
 20
20.2418276822136285
 30
0.0
 11
-2.7230239659547801
 21
20.2418276822136285
 31
0.0
1001
REVIT
1002
{
1070
     1
1000
323923
1002
}
1002
{
1070
     5
1000
216755
1002
}
1002
{
1070
     2
1000
-2000011
1002
}
  0
LINE
  5
8C
  8
L-SITE-WALL
 10
-3.0230239659576901
 20
20.5418276822165389
 30
0.0
 11
-19.9230239659518702
 21
20.5418276822165389
 31
0.0
1001
REVIT
1002
{
1070
     1
1000
323923
1002
}
1002
{
1070
     5
1000
216755
1002
}
1002
{
1070
     2
1000
-2000011
1002
}
  0
LINE
  5
98
  8
L-SITE-WALL
 10
-19.6230239659635117
 20
-18.6581723177805507
 30
0.0
 11
-19.6230239659635117
 21
-17.8581723177849199
 31
0.0
1001
REVIT
1002
{
1070
     1
1000
323924
1002
}
1002
{
1070
     5
1000
216755
1002
}
1002
{
1070
     2
1000
-2000011
1002
}
  0
LINE
  5
99
  8
L-SITE-WALL
 10
-19.6230239659635117
 20
-17.8581723177849199
 30
0.0
 11
-19.9230239659518702
 21
-17.8581723177849199
 31
0.0
1001
REVIT
1002
{
1070
     1
1000
323924
1002
}
1002
{
1070
     5
1000
216755
1002
}
1002
{
1070
     2
1000
-2000011
1002
}
  0
LINE
  5
9A
  8
L-SITE-WALL
 10
-19.9230239659518702
 20
-17.8581723177849199
 30
0.0
 11
-19.9230239659518702
 21
-18.9581723177834611
 31
0.0
1001
REVIT
1002
{
1070
     1
1000
323924
1002
}
1002
{
1070
     5
1000
216755
1002
}
1002
{
1070
     2
1000
-2000011
1002
}
  0
LINE
  5
9C
  8
L-SITE-WALL
 10
-19.6230239659635117
 20
-15.8581723177849199
 30
0.0
 11
-19.6230239659635117
 21
-15.3581723177849199
 31
0.0
1001
REVIT
1002
{
1070
     1
1000
323924
1002
}
1002
{
1070
     5
1000
216755
1002
}
1002
{
1070
     2
1000
-2000011
1002
}
  0
LINE
  5
9D
  8
L-SITE-WALL
 10
-19.6230239659635117
 20
-15.0581723177820095
 30
0.0
 11
-19.6230239659635117
 21
-6.0581723177820086
 31
0.0
1001
REVIT
1002
{
1070
     1
1000
323924
1002
}
1002
{
1070
     5
1000
216755
1002
}
1002
{
1070
     2
1000
-2000011
1002
}
  0
LINE
  5
9E
  8
L-SITE-WALL
 10
-19.6230239659635117
 20
-5.7581723177863751
 30
0.0
 11
-19.6230239659635117
 21
-4.108172317784919
 31
0.0
1001
REVIT
1002
{
1070
     1
1000
323924
1002
}
1002
{
1070
     5
1000
216755
1002
}
1002
{
1070
     2
1000
-2000011
1002
}
  0
LINE
  5
9F
  8
L-SITE-WALL
 10
-19.6230239659635117
 20
-4.108172317784919
 30
0.0
 11
-19.9230239659518702
 21
-4.108172317784919
 31
0.0
1001
REVIT
1002
{
1070
     1
1000
323924
1002
}
1002
{
1070
     5
1000
216755
1002
}
1002
{
1070
     2
1000
-2000011
1002
}
  0
LINE
  5
A0
  8
L-SITE-WALL
 10
-19.9230239659518702
 20
-4.108172317784919
 30
0.0
 11
-19.9230239659518702
 21
-5.7581723177863751
 31
0.0
1001
REVIT
1002
{
1070
     1
1000
323924
1002
}
1002
{
1070
     5
1000
216755
1002
}
1002
{
1070
     2
1000
-2000011
1002
}
  0
LINE
  5
A1
  8
L-SITE-WALL
 10
-19.9230239659518702
 20
-6.0581723177820086
 30
0.0
 11
-19.9230239659518702
 21
-15.0581723177820095
 31
0.0
1001
REVIT
1002
{
1070
     1
1000
323924
1002
}
1002
{
1070
     5
1000
216755
1002
}
1002
{
1070
     2
1000
-2000011
1002
}
  0
LINE
  5
A2
  8
L-SITE-WALL
 10
-19.9230239659518702
 20
-15.3581723177849199
 30
0.0
 11
-19.9230239659518702
 21
-15.8581723177849199
 31
0.0
1001
REVIT
1002
{
1070
     1
1000
323924
1002
}
1002
{
1070
     5
1000
216755
1002
}
1002
{
1070
     2
1000
-2000011
1002
}
  0
LINE
  5
A3
  8
L-SITE-WALL
 10
-19.9230239659518702
 20
-15.8581723177849199
 30
0.0
 11
-19.6230239659635117
 21
-15.8581723177849199
 31
0.0
1001
REVIT
1002
{
1070
     1
1000
323924
1002
}
1002
{
1070
     5
1000
216755
1002
}
1002
{
1070
     2
1000
-2000011
1002
}
  0
LINE
  5
A9
  8
L-SITE-WALL
 10
20.3769760340364883
 20
-18.6581723177805507
 30
0.0
 11
-19.6230239659635117
 21
-18.6581723177805507
 31
0.0
1001
REVIT
1002
{
1070
     1
1000
323925
1002
}
1002
{
1070
     5
1000
216755
1002
}
1002
{
1070
     2
1000
-2000011
1002
}
  0
LINE
  5
AA
  8
L-SITE-WALL
 10
-19.9230239659518702
 20
-18.9581723177834611
 30
0.0
 11
20.6769760340393987
 21
-18.9581723177834611
 31
0.0
1001
REVIT
1002
{
1070
     1
1000
323925
1002
}
1002
{
1070
     5
1000
216755
1002
}
1002
{
1070
     2
1000
-2000011
1002
}
  0
LINE
  5
BB
  8
L-SITE-WALL
 10
20.3769760340364883
 20
20.2418276822136285
 30
0.0
 11
20.3769760340364883
 21
-3.9581723177834638
 31
0.0
1001
REVIT
1002
{
1070
     1
1000
323926
1002
}
1002
{
1070
     5
1000
216755
1002
}
1002
{
1070
     2
1000
-2000011
1002
}
  0
LINE
  5
BC
  8
L-SITE-WALL
 10
20.3769760340364883
 20
-3.9581723177834638
 30
0.0
 11
20.6769760340393987
 21
-3.9581723177834638
 31
0.0
1001
REVIT
1002
{
1070
     1
1000
323926
1002
}
1002
{
1070
     5
1000
216755
1002
}
1002
{
1070
     2
1000
-2000011
1002
}
  0
LINE
  5
BD
  8
L-SITE-WALL
 10
20.6769760340393987
 20
-3.9581723177834638
 30
0.0
 11
20.6769760340393987
 21
20.5418276822165389
 31
0.0
1001
REVIT
1002
{
1070
     1
1000
323926
1002
}
1002
{
1070
     5
1000
216755
1002
}
1002
{
1070
     2
1000
-2000011
1002
}
  0
LINE
  5
BF
  8
L-SITE-WALL
 10
20.3769760340364883
 20
-5.9581723177834638
 30
0.0
 11
20.3769760340364883
 21
-6.9581723177834638
 31
0.0
1001
REVIT
1002
{
1070
     1
1000
323926
1002
}
1002
{
1070
     5
1000
216755
1002
}
1002
{
1070
     2
1000
-2000011
1002
}
  0
LINE
  5
C0
  8
L-SITE-WALL
 10
20.3769760340364883
 20
-7.2581723177863751
 30
0.0
 11
20.3769760340364883
 21
-15.0581723177820095
 31
0.0
1001
REVIT
1002
{
1070
     1
1000
323926
1002
}
1002
{
1070
     5
1000
216755
1002
}
1002
{
1070
     2
1000
-2000011
1002
}
  0
LINE
  5
C1
  8
L-SITE-WALL
 10
20.3769760340364883
 20
-15.3581723177849199
 30
0.0
 11
20.3769760340364883
 21
-15.8581723177849199
 31
0.0
1001
REVIT
1002
{
1070
     1
1000
323926
1002
}
1002
{
1070
     5
1000
216755
1002
}
1002
{
1070
     2
1000
-2000011
1002
}
  0
LINE
  5
C2
  8
L-SITE-WALL
 10
20.3769760340364883
 20
-15.8581723177849199
 30
0.0
 11
20.6769760340393987
 21
-15.8581723177849199
 31
0.0
1001
REVIT
1002
{
1070
     1
1000
323926
1002
}
1002
{
1070
     5
1000
216755
1002
}
1002
{
1070
     2
1000
-2000011
1002
}
  0
LINE
  5
C3
  8
L-SITE-WALL
 10
20.6769760340393987
 20
-15.8581723177849199
 30
0.0
 11
20.6769760340393987
 21
-5.9581723177834638
 31
0.0
1001
REVIT
1002
{
1070
     1
1000
323926
1002
}
1002
{
1070
     5
1000
216755
1002
}
1002
{
1070
     2
1000
-2000011
1002
}
  0
LINE
  5
C4
  8
L-SITE-WALL
 10
20.6769760340393987
 20
-5.9581723177834638
 30
0.0
 11
20.3769760340364883
 21
-5.9581723177834638
 31
0.0
1001
REVIT
1002
{
1070
     1
1000
323926
1002
}
1002
{
1070
     5
1000
216755
1002
}
1002
{
1070
     2
1000
-2000011
1002
}
  0
LINE
  5
C5
  8
L-SITE-WALL
 10
20.3769760340364883
 20
-17.8581723177849199
 30
0.0
 11
20.3769760340364883
 21
-18.6581723177805507
 31
0.0
1001
REVIT
1002
{
1070
     1
1000
323926
1002
}
1002
{
1070
     5
1000
216755
1002
}
1002
{
1070
     2
1000
-2000011
1002
}
  0
LINE
  5
C6
  8
L-SITE-WALL
 10
20.6769760340393987
 20
-18.9581723177834611
 30
0.0
 11
20.6769760340393987
 21
-17.8581723177849199
 31
0.0
1001
REVIT
1002
{
1070
     1
1000
323926
1002
}
1002
{
1070
     5
1000
216755
1002
}
1002
{
1070
     2
1000
-2000011
1002
}
  0
LINE
  5
C7
  8
L-SITE-WALL
 10
20.6769760340393987
 20
-17.8581723177849199
 30
0.0
 11
20.3769760340364883
 21
-17.8581723177849199
 31
0.0
1001
REVIT
1002
{
1070
     1
1000
323926
1002
}
1002
{
1070
     5
1000
216755
1002
}
1002
{
1070
     2
1000
-2000011
1002
}
  0
LINE
  5
CE
  8
L-SITE-WALL
 10
-16.3230239659606013
 20
16.9418276822179905
 30
0.0
 11
-9.8230239659606013
 21
16.9418276822179905
 31
0.0
1001
REVIT
1002
{
1070
     1
1000
324023
1002
}
1002
{
1070
     5
1000
216755
1002
}
1002
{
1070
     2
1000
-2000011
1002
}
  0
LINE
  5
CF
  8
L-SITE-WALL
 10
-9.5230239659576892
 20
16.9418276822179905
 30
0.0
 11
-3.0230239659576901
 21
16.9418276822179905
 31
0.0
1001
REVIT
1002
{
1070
     1
1000
324023
1002
}
1002
{
1070
     5
1000
216755
1002
}
1002
{
1070
     2
1000
-2000011
1002
}
  0
LINE
  5
D1
  8
L-SITE-WALL
 10
-2.7230239659547801
 20
17.2418276822136214
 30
0.0
 11
-9.5230239659576892
 21
17.2418276822136214
 31
0.0
1001
REVIT
1002
{
1070
     1
1000
324023
1002
}
1002
{
1070
     5
1000
216755
1002
}
1002
{
1070
     2
1000
-2000011
1002
}
  0
LINE
  5
D2
  8
L-SITE-WALL
 10
-9.8230239659606013
 20
17.2418276822136214
 30
0.0
 11
-16.6230239659635117
 21
17.2418276822136214
 31
0.0
1001
REVIT
1002
{
1070
     1
1000
324023
1002
}
1002
{
1070
     5
1000
216755
1002
}
1002
{
1070
     2
1000
-2000011
1002
}
  0
LINE
  5
DA
  8
L-SITE-WALL
 10
-16.6230239659635117
 20
17.2418276822136214
 30
0.0
 11
-16.6230239659635117
 21
3.3418276822194448
 31
0.0
1001
REVIT
1002
{
1070
     1
1000
324114
1002
}
1002
{
1070
     5
1000
216755
1002
}
1002
{
1070
     2
1000
-2000011
1002
}
  0
LINE
  5
DC
  8
L-SITE-WALL
 10
-16.3230239659606013
 20
3.6418276822150801
 30
0.0
 11
-16.3230239659606013
 21
10.6418276822150801
 31
0.0
1001
REVIT
1002
{
1070
     1
1000
324114
1002
}
1002
{
1070
     5
1000
216755
1002
}
1002
{
1070
     2
1000
-2000011
1002
}
  0
LINE
  5
DD
  8
L-SITE-WALL
 10
-16.3230239659606013
 20
10.9418276822179905
 30
0.0
 11
-16.3230239659606013
 21
16.9418276822179905
 31
0.0
1001
REVIT
1002
{
1070
     1
1000
324114
1002
}
1002
{
1070
     5
1000
216755
1002
}
1002
{
1070
     2
1000
-2000011
1002
}
  0
LINE
  5
E4
  8
L-SITE-WALL
 10
-16.3230239659606013
 20
10.6418276822150801
 30
0.0
 11
-3.0230239659576901
 21
10.6418276822150801
 31
0.0
1001
REVIT
1002
{
1070
     1
1000
324173
1002
}
1002
{
1070
     5
1000
216755
1002
}
1002
{
1070
     2
1000
-2000011
1002
}
  0
LINE
  5
E6
  8
L-SITE-WALL
 10
-3.0230239659576901
 20
10.9418276822179905
 30
0.0
 11
-9.5230239659576892
 21
10.9418276822179905
 31
0.0
1001
REVIT
1002
{
1070
     1
1000
324173
1002
}
1002
{
1070
     5
1000
216755
1002
}
1002
{
1070
     2
1000
-2000011
1002
}
  0
LINE
  5
E7
  8
L-SITE-WALL
 10
-9.8230239659606013
 20
10.9418276822179905
 30
0.0
 11
-16.3230239659606013
 21
10.9418276822179905
 31
0.0
1001
REVIT
1002
{
1070
     1
1000
324173
1002
}
1002
{
1070
     5
1000
216755
1002
}
1002
{
1070
     2
1000
-2000011
1002
}
  0
LINE
  5
F1
  8
L-SITE-WALL
 10
-9.5230239659576892
 20
10.9418276822179905
 30
0.0
 11
-9.5230239659576892
 21
16.9418276822179905
 31
0.0
1001
REVIT
1002
{
1070
     1
1000
324221
1002
}
1002
{
1070
     5
1000
216755
1002
}
1002
{
1070
     2
1000
-2000011
1002
}
  0
LINE
  5
F2
  8
L-SITE-WALL
 10
-9.8230239659606013
 20
16.9418276822179905
 30
0.0
 11
-9.8230239659606013
 21
10.9418276822179905
 31
0.0
1001
REVIT
1002
{
1070
     1
1000
324221
1002
}
1002
{
1070
     5
1000
216755
1002
}
1002
{
1070
     2
1000
-2000011
1002
}
  0
LINE
  5
F4
  8
L-SITE-WALL
 10
-9.5230239659576892
 20
17.2487279315682791
 30
0.0
 11
-9.8230239659606013
 21
17.2487279315682791
 31
0.0
1001
REVIT
1002
{
1070
     1
1000
324221
1002
}
1002
{
1070
     5
1000
216755
1002
}
1002
{
1070
     2
1000
-2000011
1002
}
  0
LINE
  5
FC
  8
L-SITE-WALL
 10
-3.0230239659576901
 20
16.9418276822179905
 30
0.0
 11
-3.0230239659576901
 21
10.9418276822179905
 31
0.0
1001
REVIT
1002
{
1070
     1
1000
324374
1002
}
1002
{
1070
     5
1000
216755
1002
}
1002
{
1070
     2
1000
-2000011
1002
}
  0
LINE
  5
10A
  8
L-SITE-WALL
 10
17.1769760340393987
 20
16.9418276822179905
 30
0.0
 11
17.1769760340393987
 21
3.3418276822194448
 31
0.0
1001
REVIT
1002
{
1070
     1
1000
324554
1002
}
1002
{
1070
     5
1000
216755
1002
}
1002
{
1070
     2
1000
-2000011
1002
}
  0
LINE
  5
116
  8
L-SITE-WALL
 10
10.6769760340394004
 20
10.9418276822179905
 30
0.0
 11
10.6769760340394004
 21
16.9418276822179905
 31
0.0
1001
REVIT
1002
{
1070
     1
1000
324555
1002
}
1002
{
1070
     5
1000
216755
1002
}
1002
{
1070
     2
1000
-2000011
1002
}
  0
LINE
  5
117
  8
L-SITE-WALL
 10
10.37697603403649
 20
16.9418276822179905
 30
0.0
 11
10.37697603403649
 21
10.9418276822179905
 31
0.0
1001
REVIT
1002
{
1070
     1
1000
324555
1002
}
1002
{
1070
     5
1000
216755
1002
}
1002
{
1070
     2
1000
-2000011
1002
}
  0
LINE
  5
118
  8
L-SITE-WALL
 10
10.6769760340394004
 20
17.2418276822136214
 30
0.0
 11
10.6769760340394004
 21
17.2418276822136214
 31
0.0
1001
REVIT
1002
{
1070
     1
1000
324555
1002
}
1002
{
1070
     5
1000
216755
1002
}
1002
{
1070
     2
1000
-2000011
1002
}
  0
LINE
  5
119
  8
L-SITE-WALL
 10
10.6769760340394004
 20
17.2418276822136214
 30
0.0
 11
10.37697603403649
 21
17.2418276822136214
 31
0.0
1001
REVIT
1002
{
1070
     1
1000
324555
1002
}
1002
{
1070
     5
1000
216755
1002
}
1002
{
1070
     2
1000
-2000011
1002
}
  0
LINE
  5
11A
  8
L-SITE-WALL
 10
10.37697603403649
 20
17.2418276822136214
 30
0.0
 11
10.37697603403649
 21
17.2418276822136214
 31
0.0
1001
REVIT
1002
{
1070
     1
1000
324555
1002
}
1002
{
1070
     5
1000
216755
1002
}
1002
{
1070
     2
1000
-2000011
1002
}
  0
LINE
  5
120
  8
L-SITE-WALL
 10
3.8769760340364878
 20
10.9418276822179905
 30
0.0
 11
3.8769760340364878
 21
16.9418276822179905
 31
0.0
1001
REVIT
1002
{
1070
     1
1000
324556
1002
}
1002
{
1070
     5
1000
216755
1002
}
1002
{
1070
     2
1000
-2000011
1002
}
  0
LINE
  5
127
  8
L-SITE-WALL
 10
-16.6230239659635117
 20
3.3418276822194448
 30
0.0
 11
-2.7230239659547801
 21
3.3418276822194448
 31
0.0
1001
REVIT
1002
{
1070
     1
1000
324734
1002
}
1002
{
1070
     5
1000
216755
1002
}
1002
{
1070
     2
1000
-2000011
1002
}
  0
LINE
  5
129
  8
L-SITE-WALL
 10
-3.0230239659576901
 20
3.6418276822150801
 30
0.0
 11
-16.3230239659606013
 21
3.6418276822150801
 31
0.0
1001
REVIT
1002
{
1070
     1
1000
324734
1002
}
1002
{
1070
     5
1000
216755
1002
}
1002
{
1070
     2
1000
-2000011
1002
}
  0
LINE
  5
12F
  8
L-SITE-WALL
 10
-2.7230239659547801
 20
3.3418276822194448
 30
0.0
 11
-2.7230239659547801
 21
17.2418276822136214
 31
0.0
1001
REVIT
1002
{
1070
     1
1000
324782
1002
}
1002
{
1070
     5
1000
216755
1002
}
1002
{
1070
     2
1000
-2000011
1002
}
  0
LINE
  5
130
  8
L-SITE-WALL
 10
-3.0230239659576901
 20
10.6418276822150801
 30
0.0
 11
-3.0230239659576901
 21
3.6418276822150801
 31
0.0
1001
REVIT
1002
{
1070
     1
1000
324782
1002
}
1002
{
1070
     5
1000
216755
1002
}
1002
{
1070
     2
1000
-2000011
1002
}
  0
LINE
  5
136
  8
L-SITE-WALL
 10
3.5769760340481289
 20
17.2418276822136214
 30
0.0
 11
3.5769760340481289
 21
3.3418276822194448
 31
0.0
1001
REVIT
1002
{
1070
     1
1000
324930
1002
}
1002
{
1070
     5
1000
216755
1002
}
1002
{
1070
     2
1000
-2000011
1002
}
  0
LINE
  5
138
  8
L-SITE-WALL
 10
3.8769760340364878
 20
3.3418276822194448
 30
0.0
 11
3.8769760340364878
 21
10.6418276822150801
 31
0.0
1001
REVIT
1002
{
1070
     1
1000
324930
1002
}
1002
{
1070
     5
1000
216755
1002
}
1002
{
1070
     2
1000
-2000011
1002
}
  0
LINE
  5
13F
  8
L-SITE-WALL
 10
3.5769760340481289
 20
3.3418276822194448
 30
0.0
 11
17.5269760340452194
 21
3.3418276822194448
 31
0.0
1001
REVIT
1002
{
1070
     1
1000
324983
1002
}
1002
{
1070
     5
1000
216755
1002
}
1002
{
1070
     2
1000
-2000011
1002
}
  0
LINE
  5
141
  8
L-SITE-WALL
 10
17.5269760340452194
 20
3.6418276822150801
 30
0.0
 11
3.8769760340364878
 21
3.6418276822150801
 31
0.0
1001
REVIT
1002
{
1070
     1
1000
324983
1002
}
1002
{
1070
     5
1000
216755
1002
}
1002
{
1070
     2
1000
-2000011
1002
}
  0
LINE
  5
157
  8
L-SITE-WALL
 10
-19.9230239659518702
 20
-5.7581723177863751
 30
0.0
 11
-27.6230239659635117
 21
-5.7581723177863751
 31
0.0
1001
REVIT
1002
{
1070
     1
1000
325245
1002
}
1002
{
1070
     5
1000
216755
1002
}
1002
{
1070
     2
1000
-2000011
1002
}
  0
LINE
  5
158
  8
L-SITE-WALL
 10
-27.6230239659635117
 20
-6.0581723177820086
 30
0.0
 11
-19.9230239659518702
 21
-6.0581723177820086
 31
0.0
1001
REVIT
1002
{
1070
     1
1000
325245
1002
}
1002
{
1070
     5
1000
216755
1002
}
1002
{
1070
     2
1000
-2000011
1002
}
  0
LINE
  5
163
  8
L-SITE-WALL
 10
-27.9230239659518702
 20
0.5418276822165354
 30
0.0
 11
-27.9230239659518702
 21
-1.7581723177863751
 31
0.0
1001
REVIT
1002
{
1070
     1
1000
325296
1002
}
1002
{
1070
     5
1000
216755
1002
}
1002
{
1070
     2
1000
-2000011
1002
}
  0
LINE
  5
164
  8
L-SITE-WALL
 10
-27.9230239659518702
 20
-1.7581723177863751
 30
0.0
 11
-27.6230239659635117
 21
-1.7581723177863751
 31
0.0
1001
REVIT
1002
{
1070
     1
1000
325296
1002
}
1002
{
1070
     5
1000
216755
1002
}
1002
{
1070
     2
1000
-2000011
1002
}
  0
LINE
  5
165
  8
L-SITE-WALL
 10
-27.6230239659635117
 20
-1.7581723177863751
 30
0.0
 11
-27.6230239659635117
 21
0.2418276822136249
 31
0.0
1001
REVIT
1002
{
1070
     1
1000
325296
1002
}
1002
{
1070
     5
1000
216755
1002
}
1002
{
1070
     2
1000
-2000011
1002
}
  0
LINE
  5
166
  8
L-SITE-WALL
 10
-27.9230239659518702
 20
-3.7581723177863751
 30
0.0
 11
-27.9230239659518702
 21
-15.3581723177849199
 31
0.0
1001
REVIT
1002
{
1070
     1
1000
325296
1002
}
1002
{
1070
     5
1000
216755
1002
}
1002
{
1070
     2
1000
-2000011
1002
}
  0
LINE
  5
168
  8
L-SITE-WALL
 10
-27.6230239659635117
 20
-15.0581723177820095
 30
0.0
 11
-27.6230239659635117
 21
-6.0581723177820086
 31
0.0
1001
REVIT
1002
{
1070
     1
1000
325296
1002
}
1002
{
1070
     5
1000
216755
1002
}
1002
{
1070
     2
1000
-2000011
1002
}
  0
LINE
  5
169
  8
L-SITE-WALL
 10
-27.6230239659635117
 20
-5.7581723177863751
 30
0.0
 11
-27.6230239659635117
 21
-3.7581723177863751
 31
0.0
1001
REVIT
1002
{
1070
     1
1000
325296
1002
}
1002
{
1070
     5
1000
216755
1002
}
1002
{
1070
     2
1000
-2000011
1002
}
  0
LINE
  5
16A
  8
L-SITE-WALL
 10
-27.6230239659635117
 20
-3.7581723177863751
 30
0.0
 11
-27.9230239659518702
 21
-3.7581723177863751
 31
0.0
1001
REVIT
1002
{
1070
     1
1000
325296
1002
}
1002
{
1070
     5
1000
216755
1002
}
1002
{
1070
     2
1000
-2000011
1002
}
  0
LINE
  5
174
  8
L-SITE-WALL
 10
-27.9230239659518702
 20
-15.3581723177849199
 30
0.0
 11
-19.9230239659518702
 21
-15.3581723177849199
 31
0.0
1001
REVIT
1002
{
1070
     1
1000
325373
1002
}
1002
{
1070
     5
1000
216755
1002
}
1002
{
1070
     2
1000
-2000011
1002
}
  0
LINE
  5
175
  8
L-SITE-WALL
 10
-19.9230239659518702
 20
-15.0581723177820095
 30
0.0
 11
-27.6230239659635117
 21
-15.0581723177820095
 31
0.0
1001
REVIT
1002
{
1070
     1
1000
325373
1002
}
1002
{
1070
     5
1000
216755
1002
}
1002
{
1070
     2
1000
-2000011
1002
}
  0
LINE
  5
176
  8
L-SITE-WALL
 10
-19.6230239659635117
 20
-15.3581723177849199
 30
0.0
 11
-1.7230239659547799
 21
-15.3581723177849199
 31
0.0
1001
REVIT
1002
{
1070
     1
1000
325373
1002
}
1002
{
1070
     5
1000
216755
1002
}
1002
{
1070
     2
1000
-2000011
1002
}
  0
LINE
  5
177
  8
L-SITE-WALL
 10
-2.0230239659576901
 20
-15.0581723177820095
 30
0.0
 11
-11.62302396596351
 21
-15.0581723177820095
 31
0.0
1001
REVIT
1002
{
1070
     1
1000
325373
1002
}
1002
{
1070
     5
1000
216755
1002
}
1002
{
1070
     2
1000
-2000011
1002
}
  0
LINE
  5
178
  8
L-SITE-WALL
 10
-11.9230239659518702
 20
-15.0581723177820095
 30
0.0
 11
-19.6230239659635117
 21
-15.0581723177820095
 31
0.0
1001
REVIT
1002
{
1070
     1
1000
325373
1002
}
1002
{
1070
     5
1000
216755
1002
}
1002
{
1070
     2
1000
-2000011
1002
}
  0
LINE
  5
17E
  8
L-SITE-WALL
 10
-10.4899351218919001
 20
-15.0581723177820095
 30
0.0
 11
-10.4899351218919001
 21
-5.7581723177863751
 31
0.0
1001
REVIT
1002
{
1070
     1
1000
325411
1002
}
1002
{
1070
     5
1000
216755
1002
}
1002
{
1070
     2
1000
-2000011
1002
}
  0
LINE
  5
17F
  8
L-SITE-WALL
 10
-10.7899351218948105
 20
-5.7581723177863751
 30
0.0
 11
-10.7899351218948105
 21
-15.0581723177820095
 31
0.0
1001
REVIT
1002
{
1070
     1
1000
325411
1002
}
1002
{
1070
     5
1000
216755
1002
}
1002
{
1070
     2
1000
-2000011
1002
}
  0
LINE
  5
199
  8
L-SITE-WALL
 10
-7.3230239659606013
 20
-5.7581723177863751
 30
0.0
 11
-19.6230239659635117
 21
-5.7581723177863751
 31
0.0
1001
REVIT
1002
{
1070
     1
1000
325537
1002
}
1002
{
1070
     5
1000
216755
1002
}
1002
{
1070
     2
1000
-2000011
1002
}
  0
LINE
  5
19A
  8
L-SITE-WALL
 10
-19.6230239659635117
 20
-6.0581723177820086
 30
0.0
 11
-7.0230239659576901
 21
-6.0581723177820086
 31
0.0
1001
REVIT
1002
{
1070
     1
1000
325537
1002
}
1002
{
1070
     5
1000
216755
1002
}
1002
{
1070
     2
1000
-2000011
1002
}
  0
LINE
  5
1AA
  8
L-SITE-WALL
 10
-7.0230239659576901
 20
-6.0581723177820086
 30
0.0
 11
-2.0230239659576901
 21
-6.0581723177820086
 31
0.0
1001
REVIT
1002
{
1070
     1
1000
325681
1002
}
1002
{
1070
     5
1000
216755
1002
}
1002
{
1070
     2
1000
-2000011
1002
}
  0
LINE
  5
1AC
  8
L-SITE-WALL
 10
-1.7230239659547799
 20
-5.7581723177863751
 30
0.0
 11
-7.3230239659606013
 21
-5.7581723177863751
 31
0.0
1001
REVIT
1002
{
1070
     1
1000
325681
1002
}
1002
{
1070
     5
1000
216755
1002
}
1002
{
1070
     2
1000
-2000011
1002
}
  0
LINE
  5
1B4
  8
L-SITE-WALL
 10
-2.0230239659576901
 20
-6.0581723177820086
 30
0.0
 11
-2.0230239659576901
 21
-10.0581723177820095
 31
0.0
1001
REVIT
1002
{
1070
     1
1000
325753
1002
}
1002
{
1070
     5
1000
216755
1002
}
1002
{
1070
     2
1000
-2000011
1002
}
  0
LINE
  5
1B5
  8
L-SITE-WALL
 10
-2.0230239659576901
 20
-10.3581723177849199
 30
0.0
 11
-2.0230239659576901
 21
-15.0581723177820095
 31
0.0
1001
REVIT
1002
{
1070
     1
1000
325753
1002
}
1002
{
1070
     5
1000
216755
1002
}
1002
{
1070
     2
1000
-2000011
1002
}
  0
LINE
  5
1B7
  8
L-SITE-WALL
 10
-1.7230239659547799
 20
-15.3581723177849199
 30
0.0
 11
-1.7230239659547799
 21
-5.7581723177863751
 31
0.0
1001
REVIT
1002
{
1070
     1
1000
325753
1002
}
1002
{
1070
     5
1000
216755
1002
}
1002
{
1070
     2
1000
-2000011
1002
}
  0
LINE
  5
1BE
  8
L-SITE-WALL
 10
2.276976034045219
 20
-6.9581723177834638
 30
0.0
 11
2.276976034045219
 21
-15.3581723177849199
 31
0.0
1001
REVIT
1002
{
1070
     1
1000
325994
1002
}
1002
{
1070
     5
1000
216755
1002
}
1002
{
1070
     2
1000
-2000011
1002
}
  0
LINE
  5
1C0
  8
L-SITE-WALL
 10
2.5769760340481289
 20
-15.0581723177820095
 30
0.0
 11
2.5769760340481289
 21
-7.2581723177863751
 31
0.0
1001
REVIT
1002
{
1070
     1
1000
325994
1002
}
1002
{
1070
     5
1000
216755
1002
}
1002
{
1070
     2
1000
-2000011
1002
}
  0
LINE
  5
1C7
  8
L-SITE-WALL
 10
2.276976034045219
 20
-15.3581723177849199
 30
0.0
 11
20.3769760340364883
 21
-15.3581723177849199
 31
0.0
1001
REVIT
1002
{
1070
     1
1000
326096
1002
}
1002
{
1070
     5
1000
216755
1002
}
1002
{
1070
     2
1000
-2000011
1002
}
  0
LINE
  5
1C8
  8
L-SITE-WALL
 10
20.3769760340364883
 20
-15.0581723177820095
 30
0.0
 11
10.6769760340394004
 21
-15.0581723177820095
 31
0.0
1001
REVIT
1002
{
1070
     1
1000
326096
1002
}
1002
{
1070
     5
1000
216755
1002
}
1002
{
1070
     2
1000
-2000011
1002
}
  0
LINE
  5
1C9
  8
L-SITE-WALL
 10
10.37697603403649
 20
-15.0581723177820095
 30
0.0
 11
2.5769760340481289
 21
-15.0581723177820095
 31
0.0
1001
REVIT
1002
{
1070
     1
1000
326096
1002
}
1002
{
1070
     5
1000
216755
1002
}
1002
{
1070
     2
1000
-2000011
1002
}
  0
LINE
  5
1D0
  8
L-SITE-WALL
 10
2.5769760340481289
 20
-7.2581723177863751
 30
0.0
 11
10.37697603403649
 21
-7.2581723177863751
 31
0.0
1001
REVIT
1002
{
1070
     1
1000
326194
1002
}
1002
{
1070
     5
1000
216755
1002
}
1002
{
1070
     2
1000
-2000011
1002
}
  0
LINE
  5
1D1
  8
L-SITE-WALL
 10
10.6769760340394004
 20
-7.2581723177863751
 30
0.0
 11
20.3769760340364883
 21
-7.2581723177863751
 31
0.0
1001
REVIT
1002
{
1070
     1
1000
326194
1002
}
1002
{
1070
     5
1000
216755
1002
}
1002
{
1070
     2
1000
-2000011
1002
}
  0
LINE
  5
1D2
  8
L-SITE-WALL
 10
20.3769760340364883
 20
-6.9581723177834638
 30
0.0
 11
2.276976034045219
 21
-6.9581723177834638
 31
0.0
1001
REVIT
1002
{
1070
     1
1000
326194
1002
}
1002
{
1070
     5
1000
216755
1002
}
1002
{
1070
     2
1000
-2000011
1002
}
  0
LINE
  5
1D9
  8
L-SITE-WALL
 10
-19.9230239659518702
 20
0.5418276822165354
 30
0.0
 11
-27.9230239659518702
 21
0.5418276822165354
 31
0.0
1001
REVIT
1002
{
1070
     1
1000
326314
1002
}
1002
{
1070
     5
1000
216755
1002
}
1002
{
1070
     2
1000
-2000011
1002
}
  0
LINE
  5
1DB
  8
L-SITE-WALL
 10
-27.6230239659635117
 20
0.2418276822136249
 30
0.0
 11
-19.9230239659518702
 21
0.2418276822136249
 31
0.0
1001
REVIT
1002
{
1070
     1
1000
326314
1002
}
1002
{
1070
     5
1000
216755
1002
}
1002
{
1070
     2
1000
-2000011
1002
}
  0
LINE
  5
1E1
  8
L-SITE-WALL
 10
-19.6230239659635117
 20
-1.308172317782009
 30
0.0
 11
-19.6230239659635117
 21
20.2418276822136285
 31
0.0
1001
REVIT
1002
{
1070
     1
1000
326447
1002
}
1002
{
1070
     5
1000
216755
1002
}
1002
{
1070
     2
1000
-2000011
1002
}
  0
LINE
  5
1E2
  8
L-SITE-WALL
 10
-19.9230239659518702
 20
20.5418276822165389
 30
0.0
 11
-19.9230239659518702
 21
0.5418276822165354
 31
0.0
1001
REVIT
1002
{
1070
     1
1000
326447
1002
}
1002
{
1070
     5
1000
216755
1002
}
1002
{
1070
     2
1000
-2000011
1002
}
  0
LINE
  5
1E3
  8
L-SITE-WALL
 10
-19.9230239659518702
 20
0.2418276822136249
 30
0.0
 11
-19.9230239659518702
 21
-1.308172317782009
 31
0.0
1001
REVIT
1002
{
1070
     1
1000
326447
1002
}
1002
{
1070
     5
1000
216755
1002
}
1002
{
1070
     2
1000
-2000011
1002
}
  0
LINE
  5
1E4
  8
L-SITE-WALL
 10
-19.9230239659518702
 20
-1.308172317782009
 30
0.0
 11
-19.6230239659635117
 21
-1.308172317782009
 31
0.0
1001
REVIT
1002
{
1070
     1
1000
326447
1002
}
1002
{
1070
     5
1000
216755
1002
}
1002
{
1070
     2
1000
-2000011
1002
}
  0
LINE
  5
1EC
  8
L-SITE-WALL
 10
3.8769760340364878
 20
16.9418276822179905
 30
0.0
 11
10.37697603403649
 21
16.9418276822179905
 31
0.0
1001
REVIT
1002
{
1070
     1
1000
326957
1002
}
1002
{
1070
     5
1000
216755
1002
}
1002
{
1070
     2
1000
-2000011
1002
}
  0
LINE
  5
1ED
  8
L-SITE-WALL
 10
10.6769760340394004
 20
16.9418276822179905
 30
0.0
 11
17.1769760340393987
 21
16.9418276822179905
 31
0.0
1001
REVIT
1002
{
1070
     1
1000
326957
1002
}
1002
{
1070
     5
1000
216755
1002
}
1002
{
1070
     2
1000
-2000011
1002
}
  0
LINE
  5
1EE
  8
L-SITE-WALL
 10
17.476976034042309
 20
16.9418276822179905
 30
0.0
 11
17.5269760340452194
 21
16.9418276822179905
 31
0.0
1001
REVIT
1002
{
1070
     1
1000
326957
1002
}
1002
{
1070
     5
1000
216755
1002
}
1002
{
1070
     2
1000
-2000011
1002
}
  0
LINE
  5
1EF
  8
L-SITE-WALL
 10
17.5269760340452194
 20
3.3418276822194448
 30
0.0
 11
17.5269760340452194
 21
17.2418276822136214
 31
0.0
1001
REVIT
1002
{
1070
     1
1000
326957
1002
}
1002
{
1070
     5
1000
216755
1002
}
1002
{
1070
     2
1000
-2000011
1002
}
  0
LINE
  5
1F0
  8
L-SITE-WALL
 10
17.5269760340452194
 20
17.2418276822136214
 30
0.0
 11
10.6769760340394004
 21
17.2418276822136214
 31
0.0
1001
REVIT
1002
{
1070
     1
1000
326957
1002
}
1002
{
1070
     5
1000
216755
1002
}
1002
{
1070
     2
1000
-2000011
1002
}
  0
LINE
  5
1F1
  8
L-SITE-WALL
 10
10.37697603403649
 20
17.2418276822136214
 30
0.0
 11
3.5769760340481289
 21
17.2418276822136214
 31
0.0
1001
REVIT
1002
{
1070
     1
1000
326957
1002
}
1002
{
1070
     5
1000
216755
1002
}
1002
{
1070
     2
1000
-2000011
1002
}
  0
LINE
  5
1F8
  8
L-SITE-WALL
 10
3.8769760340364878
 20
10.6418276822150801
 30
0.0
 11
17.5269760340452194
 21
10.6418276822150801
 31
0.0
1001
REVIT
1002
{
1070
     1
1000
327107
1002
}
1002
{
1070
     5
1000
216755
1002
}
1002
{
1070
     2
1000
-2000011
1002
}
  0
LINE
  5
1F9
  8
L-SITE-WALL
 10
17.1769760340393987
 20
10.9418276822179905
 30
0.0
 11
10.6769760340394004
 21
10.9418276822179905
 31
0.0
1001
REVIT
1002
{
1070
     1
1000
327107
1002
}
1002
{
1070
     5
1000
216755
1002
}
1002
{
1070
     2
1000
-2000011
1002
}
  0
LINE
  5
1FA
  8
L-SITE-WALL
 10
10.37697603403649
 20
10.9418276822179905
 30
0.0
 11
3.8769760340364878
 21
10.9418276822179905
 31
0.0
1001
REVIT
1002
{
1070
     1
1000
327107
1002
}
1002
{
1070
     5
1000
216755
1002
}
1002
{
1070
     2
1000
-2000011
1002
}
  0
LINE
  5
216
  8
L-SITE-WALL
 10
10.37697603403649
 20
-7.2581723177863751
 30
0.0
 11
10.37697603403649
 21
-15.0581723177820095
 31
0.0
1001
REVIT
1002
{
1070
     1
1000
328021
1002
}
1002
{
1070
     5
1000
216755
1002
}
1002
{
1070
     2
1000
-2000011
1002
}
  0
LINE
  5
217
  8
L-SITE-WALL
 10
10.6769760340394004
 20
-15.0581723177820095
 30
0.0
 11
10.6769760340394004
 21
-7.2581723177863751
 31
0.0
1001
REVIT
1002
{
1070
     1
1000
328021
1002
}
1002
{
1070
     5
1000
216755
1002
}
1002
{
1070
     2
1000
-2000011
1002
}
  0
LINE
  5
21E
  8
L-SITE-WALL
 10
-39.610088957095293
 20
44.122458367368381
 30
0.0
 11
-52.2100889571010995
 21
44.122458367368381
 31
0.0
1001
REVIT
1002
{
1070
     1
1000
328481
1002
}
1002
{
1070
     5
1000
216755
1002
}
1002
{
1070
     2
1000
-2000011
1002
}
  0
LINE
  5
220
  8
L-SITE-WALL
 10
-51.9100889570982034
 20
43.8224583673654635
 30
0.0
 11
-39.9100889570982034
 21
43.8224583673654635
 31
0.0
1001
REVIT
1002
{
1070
     1
1000
328481
1002
}
1002
{
1070
     5
1000
216755
1002
}
1002
{
1070
     2
1000
-2000011
1002
}
  0
LINE
  5
226
  8
L-SITE-WALL
 10
-52.2100889571010995
 20
44.122458367368381
 30
0.0
 11
-52.2100889571010995
 21
37.5224583673625602
 31
0.0
1001
REVIT
1002
{
1070
     1
1000
328519
1002
}
1002
{
1070
     5
1000
216755
1002
}
1002
{
1070
     2
1000
-2000011
1002
}
  0
LINE
  5
228
  8
L-SITE-WALL
 10
-51.9100889570982034
 20
37.8224583673654706
 30
0.0
 11
-51.9100889570982034
 21
43.8224583673654635
 31
0.0
1001
REVIT
1002
{
1070
     1
1000
328519
1002
}
1002
{
1070
     5
1000
216755
1002
}
1002
{
1070
     2
1000
-2000011
1002
}
  0
LINE
  5
232
  8
L-SITE-WALL
 10
-52.2100889571010995
 20
37.5224583673625602
 30
0.0
 11
-42.510088957089458
 21
37.5224583673625602
 31
0.0
1001
REVIT
1002
{
1070
     1
1000
328580
1002
}
1002
{
1070
     5
1000
216755
1002
}
1002
{
1070
     2
1000
-2000011
1002
}
  0
LINE
  5
233
  8
L-SITE-WALL
 10
-42.510088957089458
 20
37.5224583673625602
 30
0.0
 11
-42.510088957089458
 21
37.8224583673654706
 31
0.0
1001
REVIT
1002
{
1070
     1
1000
328580
1002
}
1002
{
1070
     5
1000
216755
1002
}
1002
{
1070
     2
1000
-2000011
1002
}
  0
LINE
  5
234
  8
L-SITE-WALL
 10
-42.510088957089458
 20
37.8224583673654706
 30
0.0
 11
-51.9100889570982034
 21
37.8224583673654706
 31
0.0
1001
REVIT
1002
{
1070
     1
1000
328580
1002
}
1002
{
1070
     5
1000
216755
1002
}
1002
{
1070
     2
1000
-2000011
1002
}
  0
LINE
  5
235
  8
L-SITE-WALL
 10
-40.510088957089458
 20
37.5224583673625602
 30
0.0
 11
-39.610088957095293
 21
37.5224583673625602
 31
0.0
1001
REVIT
1002
{
1070
     1
1000
328580
1002
}
1002
{
1070
     5
1000
216755
1002
}
1002
{
1070
     2
1000
-2000011
1002
}
  0
LINE
  5
237
  8
L-SITE-WALL
 10
-39.9100889570982034
 20
37.8224583673654706
 30
0.0
 11
-40.510088957089458
 21
37.8224583673654706
 31
0.0
1001
REVIT
1002
{
1070
     1
1000
328580
1002
}
1002
{
1070
     5
1000
216755
1002
}
1002
{
1070
     2
1000
-2000011
1002
}
  0
LINE
  5
238
  8
L-SITE-WALL
 10
-40.510088957089458
 20
37.8224583673654706
 30
0.0
 11
-40.510088957089458
 21
37.5224583673625602
 31
0.0
1001
REVIT
1002
{
1070
     1
1000
328580
1002
}
1002
{
1070
     5
1000
216755
1002
}
1002
{
1070
     2
1000
-2000011
1002
}
  0
LINE
  5
23E
  8
L-SITE-WALL
 10
-39.610088957095293
 20
37.5224583673625602
 30
0.0
 11
-39.610088957095293
 21
44.122458367368381
 31
0.0
1001
REVIT
1002
{
1070
     1
1000
328618
1002
}
1002
{
1070
     5
1000
216755
1002
}
1002
{
1070
     2
1000
-2000011
1002
}
  0
LINE
  5
240
  8
L-SITE-WALL
 10
-39.9100889570982034
 20
43.8224583673654635
 30
0.0
 11
-39.9100889570982034
 21
37.8224583673654706
 31
0.0
1001
REVIT
1002
{
1070
     1
1000
328618
1002
}
1002
{
1070
     5
1000
216755
1002
}
1002
{
1070
     2
1000
-2000011
1002
}
  0
LINE
  5
24C
  8
L-SITE-WALL
 10
-45.8871656754054129
 20
-36.0581723177820095
 30
0.0
 11
-48.1871656754083233
 21
-36.0581723177820095
 31
0.0
1001
REVIT
1002
{
1070
     1
1000
328778
1002
}
1002
{
1070
     5
1000
216755
1002
}
1002
{
1070
     2
1000
-2000011
1002
}
  0
LINE
  5
24D
  8
L-SITE-WALL
 10
-48.1871656754083233
 20
-36.0581723177820095
 30
0.0
 11
-48.1871656754083233
 21
-36.3581723177849199
 31
0.0
1001
REVIT
1002
{
1070
     1
1000
328778
1002
}
1002
{
1070
     5
1000
216755
1002
}
1002
{
1070
     2
1000
-2000011
1002
}
  0
LINE
  5
24E
  8
L-SITE-WALL
 10
-48.1871656754083233
 20
-36.3581723177849199
 30
0.0
 11
-46.1871656754083233
 21
-36.3581723177849199
 31
0.0
1001
REVIT
1002
{
1070
     1
1000
328778
1002
}
1002
{
1070
     5
1000
216755
1002
}
1002
{
1070
     2
1000
-2000011
1002
}
  0
LINE
  5
250
  8
L-SITE-WALL
 10
-50.1871656754083233
 20
-36.0581723177820095
 30
0.0
 11
-58.4871656754112266
 21
-36.0581723177820095
 31
0.0
1001
REVIT
1002
{
1070
     1
1000
328778
1002
}
1002
{
1070
     5
1000
216755
1002
}
1002
{
1070
     2
1000
-2000011
1002
}
  0
LINE
  5
252
  8
L-SITE-WALL
 10
-58.1871656754083233
 20
-36.3581723177849199
 30
0.0
 11
-50.1871656754083233
 21
-36.3581723177849199
 31
0.0
1001
REVIT
1002
{
1070
     1
1000
328778
1002
}
1002
{
1070
     5
1000
216755
1002
}
1002
{
1070
     2
1000
-2000011
1002
}
  0
LINE
  5
253
  8
L-SITE-WALL
 10
-50.1871656754083233
 20
-36.3581723177849199
 30
0.0
 11
-50.1871656754083233
 21
-36.0581723177820095
 31
0.0
1001
REVIT
1002
{
1070
     1
1000
328778
1002
}
1002
{
1070
     5
1000
216755
1002
}
1002
{
1070
     2
1000
-2000011
1002
}
  0
LINE
  5
259
  8
L-SITE-WALL
 10
-58.4871656754112266
 20
-36.0581723177820095
 30
0.0
 11
-58.4871656754112266
 21
-45.6581723177805472
 31
0.0
1001
REVIT
1002
{
1070
     1
1000
328816
1002
}
1002
{
1070
     5
1000
216755
1002
}
1002
{
1070
     2
1000
-2000011
1002
}
  0
LINE
  5
25B
  8
L-SITE-WALL
 10
-58.1871656754083233
 20
-45.3581723177849199
 30
0.0
 11
-58.1871656754083233
 21
-36.3581723177849199
 31
0.0
1001
REVIT
1002
{
1070
     1
1000
328816
1002
}
1002
{
1070
     5
1000
216755
1002
}
1002
{
1070
     2
1000
-2000011
1002
}
  0
LINE
  5
261
  8
L-SITE-WALL
 10
-58.4871656754112266
 20
-45.6581723177805472
 30
0.0
 11
-45.8871656754054129
 21
-45.6581723177805472
 31
0.0
1001
REVIT
1002
{
1070
     1
1000
328867
1002
}
1002
{
1070
     5
1000
216755
1002
}
1002
{
1070
     2
1000
-2000011
1002
}
  0
LINE
  5
263
  8
L-SITE-WALL
 10
-46.1871656754083233
 20
-45.3581723177849199
 30
0.0
 11
-58.1871656754083233
 21
-45.3581723177849199
 31
0.0
1001
REVIT
1002
{
1070
     1
1000
328867
1002
}
1002
{
1070
     5
1000
216755
1002
}
1002
{
1070
     2
1000
-2000011
1002
}
  0
LINE
  5
269
  8
L-SITE-WALL
 10
-45.8871656754054129
 20
-45.6581723177805472
 30
0.0
 11
-45.8871656754054129
 21
-36.0581723177820095
 31
0.0
1001
REVIT
1002
{
1070
     1
1000
328913
1002
}
1002
{
1070
     5
1000
216755
1002
}
1002
{
1070
     2
1000
-2000011
1002
}
  0
LINE
  5
26A
  8
L-SITE-WALL
 10
-46.1871656754083233
 20
-36.3581723177849199
 30
0.0
 11
-46.1871656754083233
 21
-45.3581723177849199
 31
0.0
1001
REVIT
1002
{
1070
     1
1000
328913
1002
}
1002
{
1070
     5
1000
216755
1002
}
1002
{
1070
     2
1000
-2000011
1002
}
  0
LINE
  5
270
  8
L-SITE-WALL
 10
47.5128343246033182
 20
53.0481326998051301
 30
0.0
 11
47.5128343246033182
 21
32.4481326998065924
 31
0.0
1001
REVIT
1002
{
1070
     1
1000
329050
1002
}
1002
{
1070
     5
1000
216755
1002
}
1002
{
1070
     2
1000
-2000011
1002
}
  0
LINE
  5
272
  8
L-SITE-WALL
 10
47.8128343245916767
 20
32.7481326998095028
 30
0.0
 11
47.8128343245916767
 21
52.7481326998095028
 31
0.0
1001
REVIT
1002
{
1070
     1
1000
329050
1002
}
1002
{
1070
     5
1000
216755
1002
}
1002
{
1070
     2
1000
-2000011
1002
}
  0
LINE
  5
278
  8
L-SITE-WALL
 10
47.5128343246033182
 20
32.4481326998065924
 30
0.0
 11
68.1128343245945871
 21
32.4481326998065924
 31
0.0
1001
REVIT
1002
{
1070
     1
1000
329082
1002
}
1002
{
1070
     5
1000
216755
1002
}
1002
{
1070
     2
1000
-2000011
1002
}
  0
LINE
  5
27A
  8
L-SITE-WALL
 10
67.8128343245916767
 20
32.7481326998095028
 30
0.0
 11
47.8128343245916767
 21
32.7481326998095028
 31
0.0
1001
REVIT
1002
{
1070
     1
1000
329082
1002
}
1002
{
1070
     5
1000
216755
1002
}
1002
{
1070
     2
1000
-2000011
1002
}
  0
LINE
  5
280
  8
L-SITE-WALL
 10
68.1128343245945871
 20
32.4481326998065924
 30
0.0
 11
68.1128343245945871
 21
53.0481326998051301
 31
0.0
1001
REVIT
1002
{
1070
     1
1000
329122
1002
}
1002
{
1070
     5
1000
216755
1002
}
1002
{
1070
     2
1000
-2000011
1002
}
  0
LINE
  5
282
  8
L-SITE-WALL
 10
67.8128343245916767
 20
52.7481326998095028
 30
0.0
 11
67.8128343245916767
 21
32.7481326998095028
 31
0.0
1001
REVIT
1002
{
1070
     1
1000
329122
1002
}
1002
{
1070
     5
1000
216755
1002
}
1002
{
1070
     2
1000
-2000011
1002
}
  0
LINE
  5
289
  8
L-SITE-WALL
 10
68.1128343245945871
 20
53.0481326998051301
 30
0.0
 11
47.5128343246033182
 21
53.0481326998051301
 31
0.0
1001
REVIT
1002
{
1070
     1
1000
329175
1002
}
1002
{
1070
     5
1000
216755
1002
}
1002
{
1070
     2
1000
-2000011
1002
}
  0
LINE
  5
28B
  8
L-SITE-WALL
 10
47.8128343245916767
 20
52.7481326998095028
 30
0.0
 11
67.8128343245916767
 21
52.7481326998095028
 31
0.0
1001
REVIT
1002
{
1070
     1
1000
329175
1002
}
1002
{
1070
     5
1000
216755
1002
}
1002
{
1070
     2
1000
-2000011
1002
}
  0
INSERT
  5
2C0
  8
A-DOOR
  2
DOORS_CONCEPT_INTDBL_-_181
 10
-27.773023965957691
 20
-2.7581723177863751
 30
0.0
 41
0.001
 42
0.001
 43
0.001
 50
270.0
1001
REVIT
1002
{
1070
     1
1000
332134
1002
}
1002
{
1070
     5
1000
332115
1002
}
1002
{
1070
     2
1000
-2000023
1002
}
1002
{
1070
     3
1000
1951
1002
}
  0
INSERT
  5
2C1
  8
A-DOOR
  2
DOORS_CONCEPT_INTDBL_-_181
 10
20.5269760340452194
 20
-4.9581723177834638
 30
0.0
 41
0.001
 42
0.001
 43
0.001
 50
270.0
1001
REVIT
1002
{
1070
     1
1000
332225
1002
}
1002
{
1070
     5
1000
332115
1002
}
1002
{
1070
     2
1000
-2000023
1002
}
1002
{
1070
     3
1000
1951
1002
}
  0
INSERT
  5
2C2
  8
A-DOOR
  2
DOORS_CONCEPT_INTDBL_-_181
 10
-19.773023965957691
 20
-16.8581723177849199
 30
0.0
 41
0.001
 42
0.001
 43
0.001
 50
90.0
1001
REVIT
1002
{
1070
     1
1000
332599
1002
}
1002
{
1070
     5
1000
332115
1002
}
1002
{
1070
     2
1000
-2000023
1002
}
1002
{
1070
     3
1000
1951
1002
}
  0
INSERT
  5
2C3
  8
A-DOOR
  2
DOORS_CONCEPT_INTDBL_-_181
 10
20.5269760340452194
 20
-16.8581723177849199
 30
0.0
 41
0.001
 42
0.001
 43
0.001
 50
270.0
1001
REVIT
1002
{
1070
     1
1000
332725
1002
}
1002
{
1070
     5
1000
332115
1002
}
1002
{
1070
     2
1000
-2000023
1002
}
1002
{
1070
     3
1000
1951
1002
}
  0
LINE
  5
2C9
  8
L-SITE-WALL
 10
-2.7230239659547801
 20
20.2418276822136285
 30
0.0
 11
-2.7230239659547801
 21
34.1418276822150801
 31
0.0
1001
REVIT
1002
{
1070
     1
1000
332861
1002
}
1002
{
1070
     5
1000
216755
1002
}
1002
{
1070
     2
1000
-2000011
1002
}
  0
LINE
  5
2CA
  8
L-SITE-WALL
 10
-3.0230239659576901
 20
34.1418276822150801
 30
0.0
 11
-3.0230239659576901
 21
20.5418276822165389
 31
0.0
1001
REVIT
1002
{
1070
     1
1000
332861
1002
}
1002
{
1070
     5
1000
216755
1002
}
1002
{
1070
     2
1000
-2000011
1002
}
  0
LINE
  5
2D2
  8
L-SITE-WALL
 10
-14.2230239659547806
 20
38.0418276822165424
 30
0.0
 11
6.976976034042309
 21
38.0418276822165424
 31
0.0
1001
REVIT
1002
{
1070
     1
1000
332917
1002
}
1002
{
1070
     5
1000
216755
1002
}
1002
{
1070
     2
1000
-2000011
1002
}
  0
LINE
  5
2D4
  8
L-SITE-WALL
 10
7.2769760340452194
 20
38.3418276822194528
 30
0.0
 11
-14.5230239659576892
 21
38.3418276822194528
 31
0.0
1001
REVIT
1002
{
1070
     1
1000
332917
1002
}
1002
{
1070
     5
1000
216755
1002
}
1002
{
1070
     2
1000
-2000011
1002
}
  0
LINE
  5
2DA
  8
L-SITE-WALL
 10
3.5769760340481289
 20
34.1418276822150801
 30
0.0
 11
3.5769760340481289
 21
20.2418276822136285
 31
0.0
1001
REVIT
1002
{
1070
     1
1000
332952
1002
}
1002
{
1070
     5
1000
216755
1002
}
1002
{
1070
     2
1000
-2000011
1002
}
  0
LINE
  5
2DB
  8
L-SITE-WALL
 10
3.8769760340364878
 20
20.5418276822165389
 30
0.0
 11
3.8769760340364878
 21
34.1418276822150801
 31
0.0
1001
REVIT
1002
{
1070
     1
1000
332952
1002
}
1002
{
1070
     5
1000
216755
1002
}
1002
{
1070
     2
1000
-2000011
1002
}
  0
LINE
  5
2E1
  8
L-SITE-WALL
 10
3.5769760340481289
 20
20.2418276822136285
 30
0.0
 11
20.3769760340364883
 21
20.2418276822136285
 31
0.0
1001
REVIT
1002
{
1070
     1
1000
333029
1002
}
1002
{
1070
     5
1000
216755
1002
}
1002
{
1070
     2
1000
-2000011
1002
}
  0
LINE
  5
2E2
  8
L-SITE-WALL
 10
20.6769760340393987
 20
20.5418276822165389
 30
0.0
 11
3.8769760340364878
 21
20.5418276822165389
 31
0.0
1001
REVIT
1002
{
1070
     1
1000
333029
1002
}
1002
{
1070
     5
1000
216755
1002
}
1002
{
1070
     2
1000
-2000011
1002
}
  0
LINE
  5
2EF
  8
L-SITE-WALL
 10
67.8128343245916767
 20
-36.3581723177849199
 30
0.0
 11
55.5128343245887734
 21
-36.3581723177849199
 31
0.0
1001
REVIT
1002
{
1070
     1
1000
333402
1002
}
1002
{
1070
     5
1000
216755
1002
}
1002
{
1070
     2
1000
-2000011
1002
}
  0
LINE
  5
2F0
  8
L-SITE-WALL
 10
55.5128343245887734
 20
-36.3581723177849199
 30
0.0
 11
55.5128343245887734
 21
-36.6581723177805472
 31
0.0
1001
REVIT
1002
{
1070
     1
1000
333402
1002
}
1002
{
1070
     5
1000
216755
1002
}
1002
{
1070
     2
1000
-2000011
1002
}
  0
LINE
  5
2F1
  8
L-SITE-WALL
 10
55.5128343245887734
 20
-36.6581723177805472
 30
0.0
 11
67.5128343245887663
 21
-36.6581723177805472
 31
0.0
1001
REVIT
1002
{
1070
     1
1000
333402
1002
}
1002
{
1070
     5
1000
216755
1002
}
1002
{
1070
     2
1000
-2000011
1002
}
  0
LINE
  5
2F3
  8
L-SITE-WALL
 10
53.5128343245887734
 20
-36.3581723177849199
 30
0.0
 11
52.2128343246004007
 21
-36.3581723177849199
 31
0.0
1001
REVIT
1002
{
1070
     1
1000
333402
1002
}
1002
{
1070
     5
1000
216755
1002
}
1002
{
1070
     2
1000
-2000011
1002
}
  0
LINE
  5
2F5
  8
L-SITE-WALL
 10
52.5128343245887592
 20
-36.6581723177805472
 30
0.0
 11
53.5128343245887734
 21
-36.6581723177805472
 31
0.0
1001
REVIT
1002
{
1070
     1
1000
333402
1002
}
1002
{
1070
     5
1000
216755
1002
}
1002
{
1070
     2
1000
-2000011
1002
}
  0
LINE
  5
2F6
  8
L-SITE-WALL
 10
53.5128343245887734
 20
-36.6581723177805472
 30
0.0
 11
53.5128343245887734
 21
-36.3581723177849199
 31
0.0
1001
REVIT
1002
{
1070
     1
1000
333402
1002
}
1002
{
1070
     5
1000
216755
1002
}
1002
{
1070
     2
1000
-2000011
1002
}
  0
LINE
  5
2FC
  8
L-SITE-WALL
 10
52.2128343246004007
 20
-36.3581723177849199
 30
0.0
 11
52.2128343246004007
 21
-46.9581723177834576
 31
0.0
1001
REVIT
1002
{
1070
     1
1000
333403
1002
}
1002
{
1070
     5
1000
216755
1002
}
1002
{
1070
     2
1000
-2000011
1002
}
  0
LINE
  5
2FE
  8
L-SITE-WALL
 10
52.5128343245887592
 20
-46.6581723177805472
 30
0.0
 11
52.5128343245887592
 21
-36.6581723177805472
 31
0.0
1001
REVIT
1002
{
1070
     1
1000
333403
1002
}
1002
{
1070
     5
1000
216755
1002
}
1002
{
1070
     2
1000
-2000011
1002
}
  0
LINE
  5
309
  8
L-SITE-WALL
 10
52.2128343246004007
 20
-46.9581723177834576
 30
0.0
 11
64.5128343245887663
 21
-46.9581723177834576
 31
0.0
1001
REVIT
1002
{
1070
     1
1000
333404
1002
}
1002
{
1070
     5
1000
216755
1002
}
1002
{
1070
     2
1000
-2000011
1002
}
  0
LINE
  5
30A
  8
L-SITE-WALL
 10
64.5128343245887663
 20
-46.9581723177834576
 30
0.0
 11
64.5128343245887663
 21
-46.6581723177805472
 31
0.0
1001
REVIT
1002
{
1070
     1
1000
333404
1002
}
1002
{
1070
     5
1000
216755
1002
}
1002
{
1070
     2
1000
-2000011
1002
}
  0
LINE
  5
30B
  8
L-SITE-WALL
 10
64.5128343245887663
 20
-46.6581723177805472
 30
0.0
 11
52.5128343245887592
 21
-46.6581723177805472
 31
0.0
1001
REVIT
1002
{
1070
     1
1000
333404
1002
}
1002
{
1070
     5
1000
216755
1002
}
1002
{
1070
     2
1000
-2000011
1002
}
  0
LINE
  5
30C
  8
L-SITE-WALL
 10
66.5128343245887663
 20
-46.9581723177834576
 30
0.0
 11
67.8128343245916767
 21
-46.9581723177834576
 31
0.0
1001
REVIT
1002
{
1070
     1
1000
333404
1002
}
1002
{
1070
     5
1000
216755
1002
}
1002
{
1070
     2
1000
-2000011
1002
}
  0
LINE
  5
30E
  8
L-SITE-WALL
 10
67.5128343245887663
 20
-46.6581723177805472
 30
0.0
 11
66.5128343245887663
 21
-46.6581723177805472
 31
0.0
1001
REVIT
1002
{
1070
     1
1000
333404
1002
}
1002
{
1070
     5
1000
216755
1002
}
1002
{
1070
     2
1000
-2000011
1002
}
  0
LINE
  5
30F
  8
L-SITE-WALL
 10
66.5128343245887663
 20
-46.6581723177805472
 30
0.0
 11
66.5128343245887663
 21
-46.9581723177834576
 31
0.0
1001
REVIT
1002
{
1070
     1
1000
333404
1002
}
1002
{
1070
     5
1000
216755
1002
}
1002
{
1070
     2
1000
-2000011
1002
}
  0
LINE
  5
315
  8
L-SITE-WALL
 10
67.8128343245916767
 20
-46.9581723177834576
 30
0.0
 11
67.8128343245916767
 21
-36.3581723177849199
 31
0.0
1001
REVIT
1002
{
1070
     1
1000
333405
1002
}
1002
{
1070
     5
1000
216755
1002
}
1002
{
1070
     2
1000
-2000011
1002
}
  0
LINE
  5
316
  8
L-SITE-WALL
 10
67.5128343245887663
 20
-36.6581723177805472
 30
0.0
 11
67.5128343245887663
 21
-46.6581723177805472
 31
0.0
1001
REVIT
1002
{
1070
     1
1000
333405
1002
}
1002
{
1070
     5
1000
216755
1002
}
1002
{
1070
     2
1000
-2000011
1002
}
  0
INSERT
  5
317
  8
A-DOOR
  2
DOORS_CONCEPT_INTDBL_-_181
 10
-41.5100889570894722
 20
37.6724583673640225
 30
0.0
 41
0.001
 42
0.001
 43
0.001
 50
180.0
1001
REVIT
1002
{
1070
     1
1000
333746
1002
}
1002
{
1070
     5
1000
332115
1002
}
1002
{
1070
     2
1000
-2000023
1002
}
1002
{
1070
     3
1000
1951
1002
}
  0
INSERT
  5
318
  8
A-DOOR
  2
DOORS_CONCEPT_INTDBL_-_181
 10
-49.1871656754083233
 20
-36.2081723177834576
 30
0.0
 41
0.001
 42
0.001
 43
0.001
1001
REVIT
1002
{
1070
     1
1000
333846
1002
}
1002
{
1070
     5
1000
332115
1002
}
1002
{
1070
     2
1000
-2000023
1002
}
1002
{
1070
     3
1000
1951
1002
}
  0
INSERT
  5
319
  8
A-DOOR
  2
DOORS_CONCEPT_INTDBL_-_181
 10
54.5128343245887592
 20
-36.5081723177863822
 30
0.0
 41
0.001
 42
0.001
 43
0.001
1001
REVIT
1002
{
1070
     1
1000
333884
1002
}
1002
{
1070
     5
1000
332115
1002
}
1002
{
1070
     2
1000
-2000023
1002
}
1002
{
1070
     3
1000
1951
1002
}
  0
INSERT
  5
31A
  8
A-DOOR
  2
DOORS_CONCEPT_INTDBL_-_181
 10
65.5128343245887663
 20
-46.8081723177820095
 30
0.0
 41
0.001
 42
0.001
 43
0.001
 50
180.0
1001
REVIT
1002
{
1070
     1
1000
333908
1002
}
1002
{
1070
     5
1000
332115
1002
}
1002
{
1070
     2
1000
-2000023
1002
}
1002
{
1070
     3
1000
1951
1002
}
  0
LINE
  5
321
  8
L-SITE-WALL
 10
6.976976034042309
 20
34.4418276822179905
 30
0.0
 11
3.5798746791406302
 21
34.4418276822179905
 31
0.0
1001
REVIT
1002
{
1070
     1
1000
334140
1002
}
1002
{
1070
     5
1000
216755
1002
}
1002
{
1070
     2
1000
-2000011
1002
}
  0
LINE
  5
322
  8
L-SITE-WALL
 10
3.5798746791406302
 20
34.4418276822179905
 30
0.0
 11
3.5798746791406302
 21
34.1418276822150801
 31
0.0
1001
REVIT
1002
{
1070
     1
1000
334140
1002
}
1002
{
1070
     5
1000
216755
1002
}
1002
{
1070
     2
1000
-2000011
1002
}
  0
LINE
  5
324
  8
L-SITE-WALL
 10
3.8769760340364878
 20
34.1418276822150801
 30
0.0
 11
7.2769760340452194
 21
34.1418276822150801
 31
0.0
1001
REVIT
1002
{
1070
     1
1000
334140
1002
}
1002
{
1070
     5
1000
216755
1002
}
1002
{
1070
     2
1000
-2000011
1002
}
  0
LINE
  5
32F
  8
L-SITE-WALL
 10
-14.2230239659547806
 20
34.4418276822179905
 30
0.0
 11
-14.2230239659547806
 21
35.241827682213632
 31
0.0
1001
REVIT
1002
{
1070
     1
1000
334181
1002
}
1002
{
1070
     5
1000
216755
1002
}
1002
{
1070
     2
1000
-2000011
1002
}
  0
LINE
  5
330
  8
L-SITE-WALL
 10
-14.2230239659547806
 20
35.241827682213632
 30
0.0
 11
-14.5230239659576892
 21
35.241827682213632
 31
0.0
1001
REVIT
1002
{
1070
     1
1000
334181
1002
}
1002
{
1070
     5
1000
216755
1002
}
1002
{
1070
     2
1000
-2000011
1002
}
  0
LINE
  5
331
  8
L-SITE-WALL
 10
-14.5230239659576892
 20
35.241827682213632
 30
0.0
 11
-14.5230239659576892
 21
34.1418276822150801
 31
0.0
1001
REVIT
1002
{
1070
     1
1000
334181
1002
}
1002
{
1070
     5
1000
216755
1002
}
1002
{
1070
     2
1000
-2000011
1002
}
  0
LINE
  5
332
  8
L-SITE-WALL
 10
-14.2230239659547806
 20
37.241827682213632
 30
0.0
 11
-14.2230239659547806
 21
38.0418276822165424
 31
0.0
1001
REVIT
1002
{
1070
     1
1000
334181
1002
}
1002
{
1070
     5
1000
216755
1002
}
1002
{
1070
     2
1000
-2000011
1002
}
  0
LINE
  5
334
  8
L-SITE-WALL
 10
-14.5230239659576892
 20
38.3418276822194528
 30
0.0
 11
-14.5230239659576892
 21
37.241827682213632
 31
0.0
1001
REVIT
1002
{
1070
     1
1000
334181
1002
}
1002
{
1070
     5
1000
216755
1002
}
1002
{
1070
     2
1000
-2000011
1002
}
  0
LINE
  5
335
  8
L-SITE-WALL
 10
-14.5230239659576892
 20
37.241827682213632
 30
0.0
 11
-14.2230239659547806
 21
37.241827682213632
 31
0.0
1001
REVIT
1002
{
1070
     1
1000
334181
1002
}
1002
{
1070
     5
1000
216755
1002
}
1002
{
1070
     2
1000
-2000011
1002
}
  0
LINE
  5
33F
  8
L-SITE-WALL
 10
6.976976034042309
 20
38.0418276822165424
 30
0.0
 11
6.976976034042309
 21
37.241827682213632
 31
0.0
1001
REVIT
1002
{
1070
     1
1000
334354
1002
}
1002
{
1070
     5
1000
216755
1002
}
1002
{
1070
     2
1000
-2000011
1002
}
  0
LINE
  5
340
  8
L-SITE-WALL
 10
6.976976034042309
 20
37.241827682213632
 30
0.0
 11
7.2769760340452194
 21
37.241827682213632
 31
0.0
1001
REVIT
1002
{
1070
     1
1000
334354
1002
}
1002
{
1070
     5
1000
216755
1002
}
1002
{
1070
     2
1000
-2000011
1002
}
  0
LINE
  5
341
  8
L-SITE-WALL
 10
7.2769760340452194
 20
37.241827682213632
 30
0.0
 11
7.2769760340452194
 21
38.3418276822194528
 31
0.0
1001
REVIT
1002
{
1070
     1
1000
334354
1002
}
1002
{
1070
     5
1000
216755
1002
}
1002
{
1070
     2
1000
-2000011
1002
}
  0
LINE
  5
342
  8
L-SITE-WALL
 10
6.976976034042309
 20
35.241827682213632
 30
0.0
 11
6.976976034042309
 21
34.4418276822179905
 31
0.0
1001
REVIT
1002
{
1070
     1
1000
334354
1002
}
1002
{
1070
     5
1000
216755
1002
}
1002
{
1070
     2
1000
-2000011
1002
}
  0
LINE
  5
343
  8
L-SITE-WALL
 10
7.2769760340452194
 20
34.1418276822150801
 30
0.0
 11
7.2769760340452194
 21
35.241827682213632
 31
0.0
1001
REVIT
1002
{
1070
     1
1000
334354
1002
}
1002
{
1070
     5
1000
216755
1002
}
1002
{
1070
     2
1000
-2000011
1002
}
  0
LINE
  5
344
  8
L-SITE-WALL
 10
7.2769760340452194
 20
35.241827682213632
 30
0.0
 11
6.976976034042309
 21
35.241827682213632
 31
0.0
1001
REVIT
1002
{
1070
     1
1000
334354
1002
}
1002
{
1070
     5
1000
216755
1002
}
1002
{
1070
     2
1000
-2000011
1002
}
  0
INSERT
  5
345
  8
A-DOOR
  2
DOORS_CONCEPT_INTDBL_-_181
 10
7.1269760340364883
 20
36.241827682213632
 30
0.0
 41
0.001
 42
0.001
 43
0.001
 50
269.9999999999998863
1001
REVIT
1002
{
1070
     1
1000
334445
1002
}
1002
{
1070
     5
1000
332115
1002
}
1002
{
1070
     2
1000
-2000023
1002
}
1002
{
1070
     3
1000
1951
1002
}
  0
INSERT
  5
346
  8
A-DOOR
  2
DOORS_CONCEPT_INTDBL_-_181
 10
-14.37302396596351
 20
36.241827682213632
 30
0.0
 41
0.001
 42
0.001
 43
0.001
 50
89.9999999999999147
1001
REVIT
1002
{
1070
     1
1000
334481
1002
}
1002
{
1070
     5
1000
332115
1002
}
1002
{
1070
     2
1000
-2000023
1002
}
1002
{
1070
     3
1000
1951
1002
}
  0
LINE
  5
34C
  8
L-SITE-WALL
 10
-2.7162503087311052
 20
34.4418276822179905
 30
0.0
 11
-14.2230239659547806
 21
34.4418276822179905
 31
0.0
1001
REVIT
1002
{
1070
     1
1000
334604
1002
}
1002
{
1070
     5
1000
216755
1002
}
1002
{
1070
     2
1000
-2000011
1002
}
  0
LINE
  5
34E
  8
L-SITE-WALL
 10
-14.5230239659576892
 20
34.1418276822150801
 30
0.0
 11
-3.0230239659576901
 21
34.1418276822150801
 31
0.0
1001
REVIT
1002
{
1070
     1
1000
334604
1002
}
1002
{
1070
     5
1000
216755
1002
}
1002
{
1070
     2
1000
-2000011
1002
}
  0
LINE
  5
350
  8
L-SITE-WALL
 10
-2.7162503087311052
 20
34.1418276822150801
 30
0.0
 11
-2.7162503087311052
 21
34.4418276822179905
 31
0.0
1001
REVIT
1002
{
1070
     1
1000
334604
1002
}
1002
{
1070
     5
1000
216755
1002
}
1002
{
1070
     2
1000
-2000011
1002
}
  0
LINE
  5
352
  8
A-DETL-THIN
 10
-623712.1462840952444822
 20
527122.4971646876074374
 30
0.0
 11
-623712.1462840967578813
 21
-502283.8078529034974054
 31
0.0
1001
REVIT
1002
{
1070
     1
1000
329313
1002
}
1002
{
1070
     2
1000
-2000051
1002
}
1002
{
1070
     3
1000
-2000042
1002
}
  0
LINE
  5
353
  8
A-DETL-THIN
 10
-623712.1462840967578813
 20
-502283.8078529034974054
 30
0.0
 11
629287.8537159039406106
 21
-502283.8078529054764658
 31
0.0
1001
REVIT
1002
{
1070
     1
1000
329396
1002
}
1002
{
1070
     2
1000
-2000051
1002
}
1002
{
1070
     3
1000
-2000042
1002
}
  0
LINE
  5
354
  8
A-DETL-THIN
 10
629287.8537159039406106
 20
-502283.8078529054764658
 30
0.0
 11
629287.8537159056868404
 21
527122.4971646836493164
 31
0.0
1001
REVIT
1002
{
1070
     1
1000
329439
1002
}
1002
{
1070
     2
1000
-2000051
1002
}
1002
{
1070
     3
1000
-2000042
1002
}
  0
LINE
  5
355
  8
A-DETL-THIN
 10
629287.8537159056868404
 20
527122.4971646836493164
 30
0.0
 11
-623712.1462840952444822
 21
527122.4971646876074374
 31
0.0
1001
REVIT
1002
{
1070
     1
1000
329503
1002
}
1002
{
1070
     2
1000
-2000051
1002
}
1002
{
1070
     3
1000
-2000042
1002
}
  0
LINE
  5
356
  8
A-DETL-THIN
 10
-75.2100889571011066
 20
78.3418276822194457
 30
0.0
 11
-75.2100889571011066
 21
-65.6581723177805543
 31
0.0
1001
REVIT
1002
{
1070
     1
1000
329714
1002
}
1002
{
1070
     2
1000
-2000051
1002
}
1002
{
1070
     3
1000
-2000042
1002
}
  0
LINE
  5
357
  8
A-DETL-THIN
 10
-75.2100889571011066
 20
-65.6581723177805543
 30
0.0
 11
97.1128343245946013
 21
-65.6581723177805543
 31
0.0
1001
REVIT
1002
{
1070
     1
1000
329788
1002
}
1002
{
1070
     2
1000
-2000051
1002
}
1002
{
1070
     3
1000
-2000042
1002
}
  0
LINE
  5
358
  8
A-DETL-THIN
 10
97.1128343245946013
 20
-65.6581723177805543
 30
0.0
 11
97.1128343245946013
 21
78.3418276822194457
 31
0.0
1001
REVIT
1002
{
1070
     1
1000
329848
1002
}
1002
{
1070
     2
1000
-2000051
1002
}
1002
{
1070
     3
1000
-2000042
1002
}
  0
LINE
  5
359
  8
A-DETL-THIN
 10
97.1128343245946013
 20
78.3418276822194457
 30
0.0
 11
-75.2100889571011066
 21
78.3418276822194457
 31
0.0
1001
REVIT
1002
{
1070
     1
1000
329911
1002
}
1002
{
1070
     2
1000
-2000051
1002
}
1002
{
1070
     3
1000
-2000042
1002
}
  0
DIMENSION
  5
493
  8
0___1
  2
*D4
 10
629287.8537159039406106
 20
-739834.1526863758917898
 30
0.0
 11
2706.2268220074479359
 21
-739834.1526863758917898
 31
0.0
 70
   128
 13
-623712.1462840967578813
 23
-502283.8078529034974054
 33
0.0
 14
629287.8537159039406106
 24
-502283.8078529034974054
 34
0.0
1001
ACADANNOTATIVE
1000
AnnotativeData
1002
{
1070
     1
1070
     0
1002
}
1001
ACAD
1000
DSTYLE
1002
{
1070
    40
1040
1.0
1070
   279
1070
     0
1070
   289
1070
     3
1070
   174
1070
     0
1070
   175
1070
     0
1070
   172
1070
     0
1002
}
  0
ENDSEC
  0
EOF
